<?xml version="1.0" encoding="UTF-8"?>
<svg version="1.1" xmlns="http://www.w3.org/2000/svg" width="512" height="512">
<path d="M0 0 C16.059288 13.21169572 27.67868581 30.39785636 34.09936523 50.1796875 C34.30964355 50.81583984 34.51992188 51.45199219 34.73657227 52.10742188 C43.0004505 78.41050224 39.50702186 109.04282074 27.03637695 133.43652344 C13.59063833 158.45022166 -8.92354332 177.42360952 -35.90063477 186.1796875 C-36.53678711 186.38996582 -37.17293945 186.60024414 -37.82836914 186.81689453 C-64.1314495 195.08077276 -94.76376801 191.58734413 -119.1574707 179.11669922 C-144.17116892 165.6709606 -163.14455679 143.15677894 -171.90063477 116.1796875 C-172.11091309 115.54353516 -172.32119141 114.90738281 -172.5378418 114.25195312 C-181.18452015 86.73045908 -176.67280668 56.52233423 -163.90063477 31.1796875 C-161.51397934 26.92372935 -158.88038649 23.04054861 -155.90063477 19.1796875 C-155.50005859 18.65713379 -155.09948242 18.13458008 -154.68676758 17.59619141 C-140.99000362 -0.05055605 -123.2096841 -12.90393688 -101.90063477 -19.8203125 C-100.94640625 -20.13572998 -100.94640625 -20.13572998 -99.97290039 -20.45751953 C-65.35561364 -31.33354768 -27.76786417 -22.17177908 0 0 Z M-124.90063477 17.1796875 C-125.50262695 17.64890625 -126.10461914 18.118125 -126.72485352 18.6015625 C-141.93258982 30.76775155 -151.93681193 51.13721692 -154.90063477 70.1796875 C-156.86774591 95.93668479 -151.91254257 117.64767175 -135.90063477 138.1796875 C-135.44430664 138.788125 -134.98797852 139.3965625 -134.51782227 140.0234375 C-121.27222498 156.67504551 -99.59505133 166.83246898 -78.83813477 169.5859375 C-56.51374523 171.81837645 -34.0806824 166.02148784 -16.40063477 151.9921875 C-14.89584451 150.72702994 -13.39571924 149.45630012 -11.90063477 148.1796875 C-11.09239258 147.56996094 -10.28415039 146.96023438 -9.45141602 146.33203125 C4.99575324 134.1415408 13.87943994 114.45926337 17.09936523 96.1796875 C18.78984643 70.3887737 14.28202956 48.74206373 -1.90063477 28.1796875 C-2.71274414 27.13941406 -2.71274414 27.13941406 -3.54125977 26.078125 C-17.9469957 8.64314553 -40.20767844 -1.35101687 -62.40063477 -3.5703125 C-85.47090816 -4.90987676 -107.21621258 2.25082617 -124.90063477 17.1796875 Z " fill="#FFFFFF" transform="translate(324.900634765625,275.8203125)"/>
<path d="M0 0 C1.94096558 -0.00942627 1.94096558 -0.00942627 3.92114258 -0.01904297 C5.30942609 -0.00683494 6.69769336 0.00736422 8.0859375 0.0234375 C8.78689545 0.02809021 9.48785339 0.03274292 10.21005249 0.03753662 C36.63207256 0.24399115 62.2667022 5.50362975 81.765625 24.57421875 C95.34549501 38.8035608 98.78550387 54.30903463 98.7265625 73.38671875 C98.727913 74.93694621 98.72985673 76.48717326 98.73236084 78.03739929 C98.73529663 81.27586933 98.73106629 84.51422848 98.72167969 87.75268555 C98.71031484 91.87102047 98.71683561 95.98909377 98.72882462 100.10741901 C98.7361098 103.30677704 98.73372452 106.50607479 98.72856903 109.7054348 C98.72724937 111.22224141 98.7288201 112.73905377 98.73352814 114.25585365 C98.76772247 128.37101445 98.48938365 141.85032732 89.1484375 153.2109375 C82.68063443 158.47542837 76.55730413 161.35775493 68.4609375 163.3984375 C68.31398438 164.43742188 68.16703125 165.47640625 68.015625 166.546875 C66.54706067 176.03728686 64.99438667 184.83023594 57.19921875 191.265625 C46.95930766 197.9850643 35.4026464 197.87472744 23.55664062 198.31933594 C21.73777078 198.38798853 19.91956078 198.47371404 18.1015625 198.5625 C12.41843343 198.73519177 8.38153147 198.37129636 3.4609375 195.3984375 C1.22564462 193.02343882 0.52204229 191.46586175 0.3359375 188.21484375 C0.65167818 182.20590392 0.65167818 182.20590392 3.5546875 179.30932617 C7.15832003 176.93990145 9.48345075 176.80823629 13.7734375 176.640625 C14.810448 176.58964157 14.810448 176.58964157 15.8684082 176.53762817 C18.0655519 176.4319438 20.26263917 176.35108691 22.4609375 176.2734375 C24.6588514 176.18519304 26.85622391 176.09146643 29.0534668 175.98782349 C31.04685298 175.89533813 33.04101333 175.82001005 35.03515625 175.74560547 C38.37147881 175.40750323 40.61188309 175.16497957 43.4609375 173.3984375 C45.09253806 169.40070666 45.73582047 165.87315833 45.86621094 161.57617188 C45.90361389 160.44949097 45.94101685 159.32281006 45.97955322 158.1619873 C46.00950378 156.95095337 46.03945435 155.73991943 46.0703125 154.4921875 C46.10815857 153.21766724 46.14600464 151.94314697 46.18499756 150.63000488 C46.45004446 141.29362173 46.5432465 131.95703236 46.6015625 122.6171875 C46.61127075 121.32167969 46.620979 120.02617187 46.63098145 118.69140625 C46.6920482 110.75447863 46.6920482 110.75447863 46.71142578 102.81738281 C46.71049041 98.87530644 46.74904566 94.93406771 46.7890625 90.9921875 C46.7819928 89.79654175 46.7749231 88.600896 46.76763916 87.36901855 C46.90293411 78.24300034 46.90293411 78.24300034 49.84667969 75.15283203 C52.67029886 73.25793781 54.09065433 72.72077683 57.4609375 72.7734375 C58.6984375 72.75410156 58.6984375 72.75410156 59.9609375 72.734375 C63.59251993 73.69901408 65.07760097 75.53808211 67.4609375 78.3984375 C68.06221008 81.39143372 68.06221008 81.39143372 68.02856445 84.74926758 C68.0281868 86.0101973 68.02780914 87.27112701 68.02742004 88.57026672 C68.00189074 89.93617756 67.97581083 91.30207819 67.94921875 92.66796875 C67.93988609 94.07328532 67.93277211 95.47861822 67.92778015 96.88395691 C67.90874522 100.57182209 67.85967721 104.25869301 67.80426025 107.94616699 C67.75299054 111.71332348 67.7302498 115.48064161 67.70507812 119.24804688 C67.65155287 126.6319623 67.56628532 134.01506026 67.4609375 141.3984375 C72.59903552 138.35119968 72.59903552 138.35119968 75.4609375 133.3984375 C76.30302588 129.10648995 76.60089971 125.01995054 76.63793945 120.6496582 C76.64451065 120.00320847 76.65108185 119.35675873 76.65785217 118.6907196 C76.6774299 116.56855111 76.68921382 114.44645291 76.69921875 112.32421875 C76.70329428 111.5932366 76.7073698 110.86225445 76.71156883 110.10912132 C76.73236525 106.23852199 76.74669361 102.36795741 76.75610352 98.49731445 C76.7671445 94.52772431 76.80153564 90.55869828 76.84127522 86.58930683 C76.86759013 83.51180578 76.87580849 80.43443613 76.87938499 77.3568325 C76.88421396 75.89498276 76.89572074 74.43313739 76.91442299 72.97139931 C77.0737706 59.69006222 74.86125875 49.22689219 65.4609375 39.3984375 C52.55543228 27.2980016 33.79642842 22.32885325 16.42578125 22.2578125 C15.12189453 22.23847656 13.81800781 22.21914062 12.47460938 22.19921875 C10.43158598 22.17021878 8.38967866 22.14843542 6.34643555 22.14794922 C-6.52742985 22.12633582 -6.52742985 22.12633582 -10.40625 19.1015625 C-13.28689452 15.45063574 -13.94816721 12.98226985 -13.5390625 8.3984375 C-10.76925053 1.83835651 -6.89685796 0.02006289 0 0 Z " fill="#FFFFFF" transform="translate(379.5390625,178.6015625)"/>
<path d="M0 0 C2.05631247 -0.01212507 4.10982288 -0.06174732 6.16552734 -0.11157227 C17.20295273 -0.1710295 17.20295273 -0.1710295 20.89208984 2.67553711 C23.5442966 6.08898054 24.11645431 7.99388982 24.34130859 12.20288086 C23.79352358 16.09900177 21.86779842 17.78461634 19.02880859 20.42553711 C16.25459639 21.81264321 13.93573924 21.58886874 10.83349609 21.63647461 C8.93458618 21.67562988 8.93458618 21.67562988 6.99731445 21.71557617 C5.99376419 21.73545593 5.99376419 21.73545593 4.96994019 21.7557373 C-16.35812253 22.21819238 -38.5693599 24.06964868 -55.06884766 39.37084961 C-61.99127926 46.86647619 -66.21570963 55.81345027 -66.22998047 66.09838867 C-66.23628479 67.40704895 -66.24258911 68.71570923 -66.24908447 70.06402588 C-66.24550285 71.481406 -66.24140043 72.89878488 -66.23681641 74.31616211 C-66.23816572 75.7857876 -66.24010846 77.25541265 -66.24261475 78.72503662 C-66.2455572 81.80151632 -66.24129924 84.87787959 -66.23193359 87.9543457 C-66.22057982 91.87230918 -66.22707809 95.78999736 -66.23907852 99.70795059 C-66.24635545 102.74338804 -66.24398195 105.77876183 -66.23882294 108.81420135 C-66.23750041 110.25730167 -66.23908446 111.70040801 -66.24378204 113.14350128 C-66.97493558 127.06749836 -66.97493558 127.06749836 -61.47119141 138.98803711 C-59.99232033 139.83838798 -58.49701086 140.66262738 -56.97119141 141.42553711 C-56.98229446 140.64737137 -56.99339752 139.86920563 -57.00483704 139.06745911 C-57.10511806 131.7257166 -57.18119551 124.3843072 -57.23025227 117.04205799 C-57.25632123 113.26748701 -57.29166769 109.49348297 -57.34838867 105.71923828 C-57.40280821 102.0752323 -57.43263227 98.4317708 -57.44557762 94.78738976 C-57.45479998 93.39868284 -57.47280993 92.01000496 -57.49984169 90.62153053 C-57.53625212 88.67343967 -57.53823479 86.7247982 -57.53881836 84.77636719 C-57.54992142 83.66828201 -57.56102448 82.56019684 -57.57246399 81.41853333 C-56.77479143 77.44790334 -55.05946938 75.95267288 -51.97119141 73.42553711 C-49.47119141 72.76147461 -49.47119141 72.76147461 -46.97119141 72.80053711 C-45.73369141 72.78120117 -45.73369141 72.78120117 -44.47119141 72.76147461 C-41.72273863 73.49153238 -40.00667149 74.50005779 -38.04089355 76.56365967 C-35.58567132 80.83711363 -36.27075144 86.20025778 -36.29931641 90.98413086 C-36.28697464 92.22928467 -36.27463287 93.47443848 -36.26191711 94.75732422 C-36.23844868 97.41839027 -36.22362049 100.07774275 -36.22415161 102.73873901 C-36.22467919 106.86326122 -36.19111398 110.98702979 -36.15063477 115.11132812 C-36.09989659 120.48036812 -36.05963189 125.84932151 -36.02734375 131.21850586 C-35.96922301 139.77075735 -35.80348075 148.31506291 -35.53369141 156.86303711 C-35.50629883 158.01795654 -35.47890625 159.17287598 -35.45068359 160.36279297 C-35.41749023 161.39283447 -35.38429687 162.42287598 -35.35009766 163.48413086 C-35.31251343 164.75728149 -35.31251343 164.75728149 -35.27416992 166.05615234 C-34.91685743 168.85044547 -34.29149418 170.93186552 -32.97119141 173.42553711 C-29.60940479 176.02065249 -25.62153756 175.79334979 -21.53759766 175.91772461 C-20.06947435 175.98359034 -18.60137598 176.05001383 -17.13330078 176.11694336 C-14.83163178 176.21173097 -12.53006793 176.30066064 -10.2277832 176.37915039 C-7.99668951 176.45887493 -5.76758253 176.56185228 -3.53759766 176.66772461 C-2.85411758 176.68455292 -2.17063751 176.70138123 -1.46644592 176.71871948 C3.23271778 176.96031327 5.71854583 178.09738314 9.02880859 181.42553711 C10.52784105 185.45418683 10.42945235 189.2736863 9.02880859 193.30053711 C5.41897905 197.135981 1.95408252 198.3198358 -3.20849609 198.60327148 C-6.41812264 198.57440946 -9.61625364 198.48897457 -12.82226562 198.33447266 C-14.83388084 198.23862368 -16.84510648 198.16892242 -18.85791016 198.10327148 C-30.17179299 197.64642975 -39.92272596 196.78126242 -48.97119141 189.42553711 C-55.58736482 182.1143875 -56.64230192 172.82101894 -57.97119141 163.42553711 C-59.11394531 163.09682617 -59.11394531 163.09682617 -60.27978516 162.76147461 C-69.25506562 160.00502143 -76.88813718 157.02357711 -82.34619141 149.05053711 C-88.41199722 137.46953358 -88.43119586 123.71858063 -88.36962891 110.93725586 C-88.37165869 109.4170569 -88.37457756 107.8968589 -88.37832642 106.37666321 C-88.38270066 103.22285501 -88.37647527 100.06930507 -88.36230469 96.91552734 C-88.34514124 92.90367386 -88.35513006 88.89241965 -88.37302208 84.88058758 C-88.38393104 81.75331713 -88.3803825 78.62618584 -88.3726387 75.4989109 C-88.37066011 74.02035256 -88.37301202 72.54178093 -88.38007736 71.06323814 C-88.44682565 53.19437045 -83.68560354 37.57222532 -71.22875977 24.48583984 C-61.5292794 14.7731786 -49.64120163 8.62463225 -36.59619141 4.67553711 C-35.62637329 4.37752197 -35.62637329 4.37752197 -34.63696289 4.07348633 C-23.34414087 0.85877153 -11.68770702 0.03258391 0 0 Z " fill="#FFFFFF" transform="translate(121.97119140625,178.574462890625)"/>
<path d="M0 0 C2.43079897 0.00315247 4.86036642 -0.02037594 7.29101562 -0.0456543 C32.7864406 -0.14896455 58.88167691 5.41530094 78.69726562 22.31567383 C79.51195312 22.93055664 80.32664062 23.54543945 81.16601562 24.17895508 C92.33243162 33.6049266 99.22910762 48.12927011 101.69726562 62.31567383 C102.0461321 66.94754722 102.13159338 71.54979432 102.08837891 76.19091797 C102.07209144 78.27546685 102.08842542 80.35813138 102.10742188 82.44262695 C102.10544242 83.78442805 102.10160492 85.126228 102.09570312 86.46801758 C102.09231934 87.66418701 102.08893555 88.86035645 102.08544922 90.09277344 C101.66226176 93.60629399 100.77867733 95.48604433 98.69726562 98.31567383 C95.27549873 100.881999 91.85086141 100.68002434 87.69726562 100.31567383 C83.87858215 98.61848117 82.19529792 97.18081317 80.69726562 93.31567383 C80.44189453 90.48168945 80.44189453 90.48168945 80.42382812 87.22192383 C80.39289063 85.42754883 80.39289063 85.42754883 80.36132812 83.59692383 C80.33560997 81.1074066 80.3171899 78.61780155 80.30664062 76.12817383 C80.07340773 64.00006352 77.31811944 53.8834611 69.69726562 44.31567383 C69.21902344 43.71239258 68.74078125 43.10911133 68.24804688 42.48754883 C56.44620452 29.28851103 35.84774156 23.31036618 18.74407959 22.18743896 C13.56286952 21.9535281 8.38294335 21.92794535 3.19726562 21.94067383 C2.00605103 21.94099106 2.00605103 21.94099106 0.79077148 21.9413147 C-20.63256477 21.99823426 -39.09315953 25.34456444 -57.30273438 37.31567383 C-58.18960938 37.89317383 -59.07648438 38.47067383 -59.99023438 39.06567383 C-68.69810796 47.53819947 -74.32325857 58.5101184 -74.51367188 70.65551758 C-74.55621094 72.49726563 -74.55621094 72.49726563 -74.59960938 74.3762207 C-74.65161109 76.95680567 -74.69590656 79.53755765 -74.73242188 82.1184082 C-74.77882812 83.96208984 -74.77882812 83.96208984 -74.82617188 85.84301758 C-74.84599121 86.96442139 -74.86581055 88.0858252 -74.88623047 89.24121094 C-75.45618644 93.44839475 -77.13226143 96.05849918 -79.99023438 99.12817383 C-83.38638239 100.87214173 -86.61315598 100.99648889 -90.30273438 100.31567383 C-93.11276898 98.52203472 -94.81213905 97.29686447 -96.30273438 94.31567383 C-96.56466339 89.82566857 -96.57408011 85.33140275 -96.59790039 80.8347168 C-96.609293 79.34340837 -96.62953673 77.85213643 -96.65942383 76.36108398 C-97.03263325 57.72563254 -92.20316552 42.40980327 -79.89648438 28.01098633 C-58.8701437 6.16132509 -29.29703895 -0.07903877 0 0 Z " fill="#FFFFFF" transform="translate(255.302734375,164.684326171875)"/>
<path d="M0 0 C11.81247795 8.94481851 18.250523 21.1256183 21.1796875 35.52734375 C21.2621875 36.62046875 21.3446875 37.71359375 21.4296875 38.83984375 C21.48125 39.47664063 21.5328125 40.1134375 21.5859375 40.76953125 C22.19767425 54.6865424 17.1576187 67.61242661 8.8046875 78.58984375 C-0.46537262 88.50262804 -13.60279332 95.27768432 -27.171875 96.04296875 C-43.61586143 96.36531985 -58.05907284 92.0984631 -70.24609375 80.4609375 C-80.66483374 68.71140047 -84.95726642 55.81559319 -84.78125 40.34375 C-83.86608978 25.14192182 -77.51009097 13.24597449 -66.5703125 2.83984375 C-47.82289229 -13.43329765 -20.20475362 -13.85050502 0 0 Z M-58.015625 24.6015625 C-62.86705498 31.58615893 -64.49273285 39.43412587 -63.5703125 47.83984375 C-61.23104332 57.23702222 -56.73653329 65.46522289 -48.46875 70.80859375 C-40.44156883 75.16903784 -31.79566809 76.34902086 -22.86328125 74.18359375 C-13.18118857 70.73313983 -6.30896706 63.86511017 -1.5703125 54.83984375 C1.73774542 46.26752059 0.80615545 38.17271183 -2.5703125 29.83984375 C-6.78007223 21.68261462 -13.24172626 15.19869292 -22.12109375 12.3203125 C-36.67362784 9.46550916 -48.62908141 13.01443919 -58.015625 24.6015625 Z " fill="#FFFFFF" transform="translate(289.5703125,57.16015625)"/>
<path d="M0 0 C11.44378767 8.3351187 19.45705232 19.79464501 22.05078125 33.80078125 C23.47784646 47.59574492 20.74837701 61.0576398 12.30078125 72.23828125 C4.19316786 81.80110729 -5.98233303 88.67427835 -18.57421875 90.42578125 C-27.81489749 91.17261811 -36.96984096 91.23546367 -45.57421875 87.42578125 C-46.46367188 87.03519531 -47.353125 86.64460938 -48.26953125 86.2421875 C-62.08256517 79.45109979 -68.84492404 69.06875344 -74.4453125 55.28125 C-78.24790972 43.24406292 -75.4895998 30.0160487 -70.40625 18.86328125 C-63.94296703 6.48055141 -53.80940858 -1.25536733 -40.57421875 -5.57421875 C-27.20341909 -9.34761604 -11.73793087 -7.17812768 0 0 Z M-49.1015625 24.421875 C-54.17568378 31.32644852 -55.77319399 38.99587288 -54.57421875 47.42578125 C-52.37185039 55.47941229 -47.07253004 62.57646679 -39.88671875 66.86328125 C-33.06308002 70.08197876 -25.37463905 70.7182021 -18.03515625 68.7421875 C-9.70675083 65.29348354 -4.24223943 60.30074089 -0.51953125 52.06640625 C2.31624785 44.14497373 1.8545027 37.08702698 -1.57421875 29.42578125 C-5.55963954 22.26984999 -11.77611216 17.02515011 -19.57421875 14.42578125 C-31.56983702 13.33385241 -40.79982203 15.33509997 -49.1015625 24.421875 Z " fill="#FFFFFF" transform="translate(151.57421875,79.57421875)"/>
<path d="M0 0 C1.3865928 1.00503039 2.76286959 2.02455663 4.125 3.0625 C5.15625 3.805 6.1875 4.5475 7.25 5.3125 C16.20927699 13.8822432 21.47310916 25.00014862 22.36328125 37.375 C22.67298212 52.7622431 18.50326288 65.64052398 7.75 76.875 C-2.59150338 86.63243176 -14.3670241 90.72598321 -28.56274414 90.53271484 C-42.36332775 89.95035918 -54.08933143 84.30807068 -63.6875 74.4375 C-72.67051161 63.81243251 -76.38917068 51.3292531 -75.75 37.5625 C-74.58145809 26.44807295 -70.90859047 17.71109944 -63.875 9.0625 C-63.39804687 8.43730469 -62.92109375 7.81210938 -62.4296875 7.16796875 C-47.52372009 -10.11827094 -18.38554788 -11.76067278 0 0 Z M-47.8125 22.9375 C-52.87825335 29.32630893 -55.05714289 35.93892696 -54.875 44.0625 C-53.52369958 52.73443768 -49.35968237 59.63717687 -42.375 64.9375 C-35.54074919 69.3404772 -28.86386017 69.84928168 -20.875 69.0625 C-13.17910402 67.31544315 -7.58982624 63.35255621 -2.875 57.0625 C1.02524523 50.41886193 2.20945853 43.67539885 1.125 36.0625 C-1.58167907 26.36816985 -5.92845099 21.3185316 -14.53515625 16.296875 C-25.96898528 10.26500526 -39.34579664 13.87107182 -47.8125 22.9375 Z " fill="#FFFFFF" transform="translate(413.875,79.9375)"/>
<path d="M0 0 C3.17852316 1.64448689 5.37801764 3.75603527 7 7 C7.11505677 8.54034165 7.16944691 10.08542764 7.19287109 11.62988281 C7.21696548 13.07213226 7.21696548 13.07213226 7.24154663 14.54351807 C7.28600026 18.94778769 7.32707034 23.35190608 7.35009766 27.75634766 C7.3666489 30.07838977 7.39392766 32.40038112 7.43212891 34.72216797 C7.48693746 38.07025586 7.50877956 41.41714869 7.5234375 44.765625 C7.54610687 45.80019836 7.56877625 46.83477173 7.59213257 47.9006958 C7.56856618 55.9554058 7.56856618 55.9554058 4.59228516 59.63964844 C0.38339061 63.4719702 -2.6751898 63.38851606 -8.2265625 63.359375 C-12.52115537 62.80289254 -14.13345993 61.16828113 -17 58 C-18.19949277 55.60101445 -18.15223061 54.04971576 -18.19287109 51.37011719 C-18.20893402 50.40861755 -18.22499695 49.44711792 -18.24154663 48.45648193 C-18.28600026 44.05221231 -18.32707034 39.64809392 -18.35009766 35.24365234 C-18.3666489 32.92161023 -18.39392766 30.59961888 -18.43212891 28.27783203 C-18.48693746 24.92974414 -18.50877956 21.58285131 -18.5234375 18.234375 C-18.54610687 17.19980164 -18.56877625 16.16522827 -18.59213257 15.0993042 C-18.56856618 7.0445942 -18.56856618 7.0445942 -15.59228516 3.36035156 C-10.88826959 -0.92279239 -6.16881491 -0.7993394 0 0 Z " fill="#FFFFFF" transform="translate(263,345)"/>
<path d="M0 0 C3.17852316 1.64448689 5.37801764 3.75603527 7 7 C8.03037808 16.00844834 8.03037808 16.00844834 5.953125 20.0234375 C3.47535361 23.0113383 1.48573267 24.83006326 -2.390625 25.2734375 C-11.05997149 25.58136511 -11.05997149 25.58136511 -14.625 22.625 C-18.45795689 18.38857397 -18.38863816 15.34807028 -18.359375 9.7734375 C-17.80289254 5.47884463 -16.16828113 3.86654007 -13 1 C-9.03716439 -0.98141781 -4.30789762 -0.55820645 0 0 Z " fill="#FFFFFF" transform="translate(263,306)"/>
</svg>
