<?xml version="1.0" encoding="UTF-8"?>
<svg version="1.1" xmlns="http://www.w3.org/2000/svg" width="48" height="48">
<path d="M0 0 C12.96314158 -1.36720634 12.96314158 -1.36720634 17.56640625 1.72265625 C19.60146787 4.04445845 21.303116 6.42265733 23 9 C24.18637074 10.41761249 25.37378706 11.83435095 26.5625 13.25 C28.24054782 15.58547477 28.96118477 16.61184767 29.25 19.5 C27.33468879 23.33062241 25.03452463 26.9579268 22 30 C21.01 30 20.02 30 19 30 C19.62679426 24.35885167 19.62679426 24.35885167 21.625 22.4375 C22.07875 21.963125 22.5325 21.48875 23 21 C22.6806197 16.44084617 20.6741926 13.76085174 17.875 10.25 C17.12992188 9.28578125 16.38484375 8.3215625 15.6171875 7.328125 C12.40974393 4.47493639 10.21989381 4.22698695 6 4 C8.475 7.465 8.475 7.465 11 11 C10.01 11.99 9.02 12.98 8 14 C6.6517119 12.61860662 5.32182622 11.2192352 4 9.8125 C3.2575 9.03519531 2.515 8.25789062 1.75 7.45703125 C-0.23536171 4.66954796 -0.37992882 3.34218632 0 0 Z " fill="#76ABAE" transform="translate(10,5)"/>
<path d="M0 0 C-0.48185613 4.7221901 -2.69663433 7.70054372 -5.5625 11.3125 C-5.98724609 11.86228516 -6.41199219 12.41207031 -6.84960938 12.97851562 C-7.89181259 14.3251827 -8.94483843 15.66346201 -10 17 C-3.94384573 16.31071201 -3.94384573 16.31071201 1 13 C1.66 13.33 2.32 13.66 3 14 C1.92598892 16.91517292 1.22189824 18.77810176 -1 21 C-3.58064129 21.14497985 -6.04943884 21.18677545 -8.625 21.125 C-9.68460938 21.11146484 -9.68460938 21.11146484 -10.765625 21.09765625 C-12.51056098 21.07407603 -14.25532295 21.03820461 -16 21 C-16.3059621 16.97622742 -15.80583237 15.12994477 -13.26171875 12.01171875 C-12.68873047 11.30595703 -12.11574219 10.60019531 -11.52539062 9.87304688 C-10.91888672 9.15181641 -10.31238281 8.43058594 -9.6875 7.6875 C-8.79514648 6.57665039 -8.79514648 6.57665039 -7.88476562 5.44335938 C-3.39462126 0 -3.39462126 0 0 0 Z " fill="#76ABAE" transform="translate(26,22)"/>
</svg>
