<?xml version="1.0" encoding="UTF-8"?>
<svg version="1.1" xmlns="http://www.w3.org/2000/svg" width="512" height="512">
<path d="M0 0 C0.86368698 -0.00350464 1.72737396 -0.00700928 2.61723328 -0.01062012 C5.47602341 -0.01943234 8.33456666 -0.01359006 11.19335938 -0.00683594 C13.17728727 -0.00818273 15.16121484 -0.01012339 17.1451416 -0.01263428 C21.30463806 -0.01558485 25.46404867 -0.01129001 29.62353516 -0.00195312 C34.96031782 0.00944134 40.29689934 0.00288152 45.63367462 -0.00909805 C49.73083009 -0.01631843 53.82793771 -0.0140279 57.9250946 -0.00884247 C59.8931226 -0.00750647 61.8611549 -0.00915196 63.82917786 -0.01380157 C66.57764219 -0.01886969 69.32577887 -0.01115252 72.07421875 0 C72.89093552 -0.00404846 73.70765228 -0.00809692 74.54911804 -0.01226807 C78.40484772 0.01677756 80.25286692 0.06929409 83.53710938 2.25878906 C83.83389915 5.1185234 83.93604155 7.7619873 83.90942383 10.62402344 C83.91307449 11.48917068 83.91672516 12.35431793 83.92048645 13.24568176 C83.92861422 16.11483185 83.91496347 18.9834211 83.90039062 21.85253906 C83.89987229 23.84029134 83.90038897 25.82804413 83.90190125 27.8157959 C83.90181142 31.9855106 83.89136141 36.15503235 83.87329102 40.32470703 C83.85060353 45.67844496 83.85005867 51.03190076 83.85680866 56.38567352 C83.86014486 60.49137901 83.85352515 64.59701978 83.84367943 68.70271301 C83.83982111 70.67714601 83.83868182 72.6515862 83.84026527 74.62602234 C83.84063476 77.3820068 83.82804847 80.13762505 83.81176758 82.89355469 C83.814245 83.71543777 83.81672241 84.53732086 83.8192749 85.3841095 C83.76584977 91.03004867 83.76584977 91.03004867 81.53710938 93.25878906 C79.19873047 93.48583984 79.19873047 93.48583984 76.31054688 93.45410156 C75.27929688 93.44765625 74.24804688 93.44121094 73.18554688 93.43457031 C72.1053125 93.4178125 71.02507812 93.40105469 69.91210938 93.38378906 C68.82414063 93.37476562 67.73617187 93.36574219 66.61523438 93.35644531 C63.92230786 93.33282315 61.22981682 93.29988462 58.53710938 93.25878906 C58.37544698 100.10955024 58.30806496 106.95667172 58.30517578 113.80932617 C58.2931949 116.13831275 58.25989066 118.46729353 58.20458984 120.7956543 C57.26802244 133.87140448 57.26802244 133.87140448 62.15454102 145.25854492 C65.24875965 147.0334848 68.16546383 148.13296422 71.53710938 149.25878906 C78.49538616 154.64105234 82.97941286 161.55961282 85.17773438 170.02441406 C85.43586914 171.00700195 85.69400391 171.98958984 85.95996094 173.00195312 C86.24564941 174.11908691 86.24564941 174.11908691 86.53710938 175.25878906 C87.13686584 175.2646553 87.73662231 175.27052155 88.35455322 175.27656555 C94.65007681 175.34096732 100.94511109 175.4255019 107.24023438 175.52124023 C109.58326731 175.55430203 111.92637631 175.582391 114.26953125 175.60522461 C117.65592583 175.6391174 121.04163499 175.69144871 124.42773438 175.74707031 C125.97536469 175.7566552 125.97536469 175.7566552 127.55426025 175.76643372 C139.76691293 176.00814119 150.82486029 178.31102246 159.54101562 187.33300781 C167.34270358 196.66571595 168.55084416 208.04674047 170.45507812 219.66894531 C170.71920177 221.24802549 170.98396761 222.82699838 171.24934387 224.40586853 C171.94123867 228.53275818 172.62448058 232.66103373 173.30584717 236.78967285 C174.00460324 241.01398483 174.7116483 245.2369084 175.41796875 249.45996094 C176.79906957 257.72491062 178.1710198 265.99134501 179.53710938 274.25878906 C180.04819748 273.93553146 180.55928558 273.61227386 181.08586121 273.27922058 C190.05489212 267.60750441 199.02395283 261.93649791 208.0324707 256.32763672 C209.99184597 255.10606243 211.94852201 253.88015235 213.90307617 252.65087891 C218.25828257 249.91248125 222.61097639 247.19153723 227.06835938 244.62207031 C234.4697737 240.53012262 234.4697737 240.53012262 238.66210938 233.50878906 C238.88447266 232.40083984 238.88447266 232.40083984 239.11132812 231.27050781 C239.75920851 228.20942157 241.36326794 226.4326305 243.53710938 224.25878906 C248.23487456 221.38906729 253.20416179 221.38502929 258.53710938 222.25878906 C262.83547192 224.6061218 265.67359746 227.73186153 267.53710938 232.25878906 C267.71895001 235.59253399 267.76840411 238.44321867 266.85449219 241.66577148 C266.43101871 245.12554977 267.39633648 246.40396273 269.27148438 249.30957031 C269.89974121 250.30335693 270.52799805 251.29714355 271.17529297 252.32104492 C271.87219238 253.39362549 272.5690918 254.46620605 273.28710938 255.57128906 C274.75996506 257.88737468 276.22213211 260.21016778 277.68554688 262.53222656 C278.07259796 263.14317673 278.45964905 263.75412689 278.85842896 264.3835907 C283.70543057 272.057035 288.30140839 279.87949867 292.91210938 287.69628906 C294.14367972 289.78189514 295.37566586 291.86725271 296.60848999 293.95211792 C297.34745301 295.20220642 298.08548658 296.45284499 298.82241821 297.70413208 C300.33712305 300.26939314 301.88387755 302.77894132 303.53710938 305.25878906 C305.72553677 305.83760356 305.72553677 305.83760356 308.22460938 306.07128906 C313.57252265 307.01686213 317.270572 308.81990545 320.53710938 313.25878906 C321.47460938 317.13378906 321.47460938 317.13378906 321.53710938 320.25878906 C322.34148437 320.09378906 323.14585937 319.92878906 323.97460938 319.75878906 C337.00519508 317.92993493 348.87598334 320.90042273 359.50585938 328.70410156 C364.04219779 332.37546019 368.1365859 336.19265192 368.92456055 342.22485352 C368.53710938 345.25878906 368.53710938 345.25878906 366.59692383 347.17749023 C365.70706787 347.71349854 364.81721191 348.24950684 363.90039062 348.80175781 C362.93037109 349.40052734 361.96035156 349.99929688 360.9609375 350.61621094 C359.93419922 351.22013672 358.90746094 351.8240625 357.84960938 352.44628906 C356.84220703 353.06181641 355.83480469 353.67734375 354.796875 354.31152344 C352.05551048 355.98167489 349.29988167 357.62438126 346.53710938 359.25878906 C344.86985947 360.25781636 343.20301437 361.25752071 341.53710938 362.25878906 C342.15124615 365.43535861 343.24439925 367.5016106 345.09960938 370.13378906 C347.38777957 373.64494678 348.0702582 375.99359845 347.53710938 380.25878906 C345.88710938 380.91878906 344.23710937 381.57878906 342.53710938 382.25878906 C337.4804751 378.8381247 334.70203041 374.34876515 331.53710938 369.25878906 C324.42196578 372.63643769 317.97594993 376.74025687 311.42773438 381.10058594 C307.13905777 383.88270975 303.78768797 385.9614262 298.53710938 386.25878906 C291.7610065 378.51467149 289.79564767 368.64461068 290.15039062 358.52832031 C291.22485649 349.44419985 294.2886695 341.69407888 299.53710938 334.25878906 C298.75335938 333.70191406 297.96960938 333.14503906 297.16210938 332.57128906 C293.89455041 329.69272521 292.7605113 327.64015847 292.35351562 323.30175781 C292.22807114 319.32442973 292.68561301 316.7149156 294.53710938 313.25878906 C294.03068056 309.46324395 292.09623907 306.5215286 290.17773438 303.26269531 C289.83681763 302.68113678 289.49590088 302.09957825 289.14465332 301.50039673 C288.03074728 299.60419713 286.90926004 297.71261942 285.78710938 295.82128906 C285.01514622 294.51254156 284.24333744 293.20370299 283.47167969 291.89477539 C277.41710364 281.64796762 271.26437001 271.45785542 264.87280273 261.41699219 C263.96466554 259.94963105 263.0966338 258.45684774 262.26586914 256.94433594 C259.95743747 252.5841674 259.95743747 252.5841674 255.78320312 250.32910156 C254.85636719 250.34714844 253.92953125 250.36519531 252.97460938 250.38378906 C247.80915606 250.39811764 247.80915606 250.39811764 245.44726562 249.18847656 C242.97011252 247.9828274 242.11883172 248.41432538 239.53710938 249.25878906 C238.20344422 249.94131182 236.89690063 250.67832347 235.61523438 251.45410156 C234.46450439 252.14669067 234.46450439 252.14669067 233.29052734 252.85327148 C232.46439941 253.35834229 231.63827148 253.86341309 230.78710938 254.38378906 C229.92617676 254.90497314 229.06524414 255.42615723 228.17822266 255.96313477 C219.8150019 261.04553712 211.51826227 266.23592289 203.23339844 271.44482422 C201.77111816 272.36400635 201.77111816 272.36400635 200.27929688 273.30175781 C199.41159668 273.84856201 198.54389648 274.39536621 197.64990234 274.95874023 C195.53710938 276.25878906 195.53710938 276.25878906 193.53710938 277.25878906 C194.189375 277.35675781 194.84164063 277.45472656 195.51367188 277.55566406 C201.67762347 278.61026345 206.75962225 279.6654151 210.78710938 284.87597656 C214.25075299 290.67276901 214.28073418 296.67770956 213.53710938 303.25878906 C211.84222355 308.64254403 208.19008352 312.18682548 203.53710938 315.25878906 C200.09853165 316.383898 196.80877958 316.41449439 193.20800781 316.46411133 C191.28646881 316.49402916 191.28646881 316.49402916 189.32611084 316.52455139 C187.93290324 316.54153316 186.53969438 316.55841206 185.14648438 316.57519531 C183.71729955 316.59577701 182.28812064 316.6167738 180.85894775 316.63816833 C177.10417487 316.69326356 173.3493482 316.74272795 169.59448242 316.79101562 C165.76020542 316.84132251 161.92600618 316.89696054 158.09179688 316.95214844 C150.57363363 317.05957642 143.05540556 317.16105522 135.53710938 317.25878906 C141.61600828 323.59443327 147.72555655 329.89849166 153.87453461 336.16614819 C156.72999104 339.07861342 159.5744801 342.00020836 162.39501953 344.9465332 C165.12596327 347.79846402 167.8842239 350.62132982 170.66215515 353.42748451 C171.70838217 354.49377937 172.74501574 355.56958994 173.77082825 356.65553856 C180.81017213 364.09003101 186.88851518 367.77351265 196.87683105 370.19892883 C206.80954751 373.07501918 213.63155253 380.42878674 218.53710938 389.25878906 C223.41861303 399.7811414 224.48619464 411.85318492 220.56445312 422.89550781 C216.13802654 433.07797201 209.40841465 441.55301316 199.34960938 446.69628906 C188.28237842 450.94688927 176.30051803 451.53263094 165.36914062 446.92285156 C154.2095793 441.56734954 147.08209451 434.72557223 142.09960938 423.25878906 C138.59516936 412.51691859 138.99645279 400.01393572 143.99023438 389.87207031 C149.65535967 380.30144198 156.12943391 374.11175516 166.30273438 369.58691406 C167.28532227 369.14766602 168.26791016 368.70841797 169.28027344 368.25585938 C170.39740723 367.76230957 170.39740723 367.76230957 171.53710938 367.25878906 C165.36313579 360.68887799 159.14277522 354.16750584 152.86034489 347.70121765 C149.94361764 344.69618952 147.04460413 341.67768856 144.18188477 338.62109375 C141.41218441 335.66505718 138.60150935 332.75404008 135.75912285 329.8678894 C134.68868042 328.76631402 133.63316932 327.6500003 132.59431648 326.51858521 C127.57578965 321.0719517 122.89090968 316.81255579 115.25063896 315.95061493 C108.27431547 315.72011104 103.21643738 317.19850665 97.92553711 321.94042969 C95.77502333 324.02694897 93.74867449 326.21022649 91.72070312 328.41503906 C90.60535781 329.56216911 89.48614193 330.70554717 88.36329651 331.84533691 C85.4453785 334.8275728 82.58217267 337.85718314 79.72814941 340.90045166 C76.79599799 344.00783817 73.81391942 347.06650692 70.8359375 350.12988281 C65.02028019 356.12680467 59.26162517 362.17480986 53.53710938 368.25878906 C56.23813762 370.30812496 58.96842381 372.16026107 61.84960938 373.94628906 C70.76318647 379.90331021 76.78148078 388.13595304 79.35742188 398.58691406 C81.630897 411.6522015 79.40155309 421.94395242 72.53710938 433.25878906 C65.9176016 442.37417682 55.32173247 448.35176929 44.22460938 450.13378906 C31.86081062 450.98271186 20.49952734 447.08208349 10.72460938 439.57128906 C1.84537182 431.21308256 -2.36196123 420.22778425 -2.83789062 408.19628906 C-2.35082667 395.51233195 3.18135128 384.69607469 12.31445312 376.02050781 C16.7054231 372.54014321 21.83146963 369.25878906 27.53710938 369.25878906 C19.89084478 360.40067619 11.95417731 351.82042717 3.83958244 343.39107513 C1.37385878 340.82708275 -1.06786111 338.24711755 -3.46435547 335.61816406 C-16.23411185 320.91944392 -16.23411185 320.91944392 -33.74804688 314.35253906 C-48.50591592 314.96228645 -59.82005839 330.38652569 -69.08294678 340.43688965 C-71.92035713 343.49133441 -74.82016879 346.48530452 -77.71484375 349.48535156 C-83.35931281 355.35330207 -88.93231858 361.28337532 -94.46289062 367.25878906 C-93.58681152 367.5776709 -92.71073242 367.89655273 -91.80810547 368.22509766 C-90.65004395 368.6564502 -89.49198242 369.08780273 -88.29882812 369.53222656 C-86.58252197 370.16523682 -86.58252197 370.16523682 -84.83154297 370.81103516 C-74.35925832 375.31173439 -67.90627985 383.48656767 -63.36914062 393.72753906 C-59.43008749 404.96113503 -60.75607063 416.64906248 -65.65039062 427.25878906 C-71.09990611 437.58752189 -78.83690503 443.72260222 -89.58789062 448.13378906 C-100.29623048 451.29890898 -112.49518149 450.04866127 -122.46289062 445.25878906 C-131.68428835 439.95487324 -139.18414908 431.40992109 -142.46289062 421.25878906 C-145.1916728 410.43584896 -144.39616394 398.27129052 -139.46289062 388.25878906 C-132.75472624 377.1712013 -123.1787739 371.4108937 -111.1320343 367.50259399 C-107.87206952 365.98346997 -105.93017567 364.08628562 -103.3972168 361.53369141 C-102.91856171 361.0554744 -102.43990662 360.57725739 -101.94674683 360.08454895 C-100.37589586 358.51161804 -98.8159228 356.92835116 -97.25585938 355.34472656 C-96.16507046 354.24833888 -95.07361466 353.1526143 -93.98152161 352.05752563 C-91.11599884 349.18057628 -88.25960178 346.29473068 -85.4050293 343.40692139 C-82.48773065 340.45887481 -79.5618672 337.51935579 -76.63671875 334.57910156 C-70.9037056 328.81396282 -65.1803077 323.03939494 -59.46289062 317.25878906 C-60.29925552 317.25292282 -61.13562042 317.24705658 -61.99732971 317.24101257 C-69.89790479 317.18299281 -77.79819996 317.11086312 -85.69850254 317.02307415 C-89.75967468 316.97843857 -93.82074807 316.93916774 -97.88208008 316.91235352 C-101.80505065 316.88625212 -105.72763986 316.84580222 -109.65037346 316.7956028 C-111.14335303 316.77898009 -112.6363985 316.76743727 -114.12945747 316.76117516 C-116.22871549 316.75148339 -118.32700798 316.72336681 -120.42602539 316.69116211 C-121.6184938 316.68005905 -122.81096222 316.66895599 -124.03956604 316.65751648 C-129.55935743 316.01460573 -134.29018951 314.22771644 -137.83789062 309.75878906 C-138.32 309.17097656 -138.80210937 308.58316406 -139.29882812 307.97753906 C-142.6068771 303.09317144 -141.96968685 296.89065131 -141.46289062 291.25878906 C-140.12823285 286.52266063 -138.249953 283.88522646 -134.40039062 280.82128906 C-130.5635054 278.78039267 -127.85796218 278.13518257 -123.57617188 278.16113281 C-122.30833862 278.16487915 -122.30833862 278.16487915 -121.01489258 278.16870117 C-119.41133911 278.18235718 -119.41133911 278.18235718 -117.77539062 278.19628906 C-115.93579313 278.20778167 -114.09619332 278.2189074 -112.2565918 278.22973633 C-110.65869141 278.23942057 -109.06079102 278.24910482 -107.46289062 278.25878906 C-107.29781006 276.99333252 -107.13272949 275.72787598 -106.96264648 274.42407227 C-105.08666164 260.24988043 -102.9346602 246.12971319 -100.61108398 232.0222168 C-100.21695498 229.61587769 -99.82838179 227.20862273 -99.44506836 224.80053711 C-98.88093063 221.25721827 -98.30070608 217.71686561 -97.71679688 214.17675781 C-97.54998917 213.1110405 -97.38318146 212.04532318 -97.21131897 210.9473114 C-95.26538415 199.4063595 -91.00361597 188.99925244 -81.27539062 181.94628906 C-72.15900372 176.47319062 -62.77951909 175.82503994 -52.35742188 175.96582031 C-51.15220383 175.97006516 -49.94698578 175.97431 -48.70524597 175.97868347 C-44.89505687 175.99533684 -41.08541706 176.03296464 -37.27539062 176.07128906 C-34.67578894 176.08635311 -32.07617889 176.10003849 -29.4765625 176.11230469 C-23.13848775 176.14519658 -16.80072845 176.19526135 -10.46289062 176.25878906 C-10.40298447 175.6435437 -10.34307831 175.02829834 -10.28135681 174.39440918 C-10.19809647 173.58588501 -10.11483612 172.77736084 -10.02905273 171.94433594 C-9.94852158 171.14346558 -9.86799042 170.34259521 -9.78501892 169.51745605 C-8.4109982 159.88323487 -0.81603433 152.86672461 6.53710938 147.25878906 C9.84536136 144.97510765 12.40116967 143.25878906 16.53710938 143.25878906 C16.53710938 126.75878906 16.53710938 110.25878906 16.53710938 93.25878906 C8.07042881 93.33790678 8.07042881 93.33790678 -0.39599609 93.43896484 C-1.44674316 93.44395996 -2.49749023 93.44895508 -3.58007812 93.45410156 C-4.6588623 93.4645752 -5.73764648 93.47504883 -6.84912109 93.48583984 C-9.46289062 93.25878906 -9.46289062 93.25878906 -11.46289062 91.25878906 C-11.66680788 88.43829767 -11.74605534 85.71558979 -11.73754883 82.89355469 C-11.74265976 82.02840744 -11.74777069 81.16326019 -11.7530365 80.27189636 C-11.76697373 77.4028742 -11.7659728 74.53409111 -11.76367188 71.66503906 C-11.76755623 69.67728587 -11.77189035 67.6895335 -11.7766571 65.70178223 C-11.78412798 61.53211783 -11.78382154 57.36253809 -11.77856445 53.19287109 C-11.77276535 47.8390814 -11.7897073 42.48563715 -11.81290913 37.1319046 C-11.82761145 33.02620403 -11.82852302 28.92058735 -11.8253994 24.81486511 C-11.82591427 22.8404217 -11.83118284 20.86597379 -11.84121132 18.89155579 C-11.85349228 16.13548045 -11.84683485 13.38008714 -11.83520508 10.62402344 C-11.84284882 9.80214035 -11.85049255 8.98025726 -11.85836792 8.13346863 C-11.83711243 5.86462402 -11.83711243 5.86462402 -11.46289062 2.25878906 C-7.61405912 -0.30709861 -4.46124033 -0.02211435 0 0 Z M-2.46289062 10.25878906 C-2.46289062 34.67878906 -2.46289062 59.09878906 -2.46289062 84.25878906 C22.94710937 84.25878906 48.35710937 84.25878906 74.53710938 84.25878906 C74.53710938 59.83878906 74.53710938 35.41878906 74.53710938 10.25878906 C49.12710938 10.25878906 23.71710938 10.25878906 -2.46289062 10.25878906 Z M25.53710938 93.25878906 C25.53710938 108.43878906 25.53710938 123.61878906 25.53710938 139.25878906 C33.12710938 139.25878906 40.71710938 139.25878906 48.53710938 139.25878906 C48.53710938 124.07878906 48.53710938 108.89878906 48.53710938 93.25878906 C40.94710937 93.25878906 33.35710937 93.25878906 25.53710938 93.25878906 Z M3.01367188 164.16503906 C0.50150074 167.72727115 -1.46289062 171.82121109 -1.46289062 176.25878906 C24.27710938 176.25878906 50.01710938 176.25878906 76.53710938 176.25878906 C75.04730329 167.31995257 71.61842306 161.46555804 64.41210938 155.88378906 C44.20647667 142.48569167 18.66165068 145.58752998 3.01367188 164.16503906 Z M-80.27539062 193.57128906 C-80.81808594 194.10367188 -81.36078125 194.63605469 -81.91992188 195.18457031 C-86.88848336 201.86382639 -87.6332259 209.81806634 -88.90820312 217.82910156 C-89.12509155 219.15569206 -89.34262275 220.4821776 -89.5607605 221.80856323 C-90.01507743 224.58308084 -90.46325612 227.35849603 -90.90673828 230.13476562 C-91.46948301 233.65601783 -92.04487117 237.17505132 -92.62468147 240.69352913 C-93.07511905 243.43327358 -93.51991616 246.17391112 -93.96300888 248.91485214 C-94.27354644 250.83198509 -94.58765905 252.74853788 -94.90188599 254.66506958 C-96.15207559 262.5272291 -96.94697956 270.31375872 -97.46289062 278.25878906 C-93.50289062 278.25878906 -89.54289062 278.25878906 -85.46289062 278.25878906 C-83.28793749 272.55503556 -82.38251337 266.71877988 -81.36914062 260.72753906 C-81.08085388 259.06362122 -81.08085388 259.06362122 -80.78674316 257.36608887 C-80.17438382 253.83106582 -79.56791455 250.29507449 -78.96289062 246.75878906 C-78.16609242 242.10160816 -77.36324093 237.44553113 -76.55664062 232.79003906 C-76.37637329 231.72426636 -76.19610596 230.65849365 -76.01037598 229.5604248 C-75.15644371 224.63480713 -74.25210599 219.95095609 -72.46289062 215.25878906 C-70.48289062 215.25878906 -68.50289062 215.25878906 -66.46289062 215.25878906 C-65.48063425 219.10005618 -65.53715281 221.94302625 -66.26733398 225.82763672 C-66.46761703 226.91871735 -66.66790009 228.00979797 -66.87425232 229.13394165 C-67.0981514 230.30178192 -67.32205048 231.46962219 -67.55273438 232.67285156 C-67.77610977 233.87944427 -67.99948517 235.08603699 -68.22962952 236.32919312 C-68.94450549 240.18240875 -69.67190612 244.03312518 -70.40039062 247.88378906 C-71.12302164 251.74198111 -71.8430466 255.60063906 -72.56044006 259.45980835 C-73.00759245 261.86104807 -73.45821 264.26164555 -73.9125824 266.66152954 C-74.21773521 268.288694 -74.21773521 268.288694 -74.52905273 269.94873047 C-74.70971786 270.9040567 -74.890383 271.85938293 -75.07652283 272.84365845 C-75.54187529 275.34487098 -75.54187529 275.34487098 -75.46289062 278.25878906 C5.38710938 278.25878906 86.23710938 278.25878906 169.53710938 278.25878906 C168.79350683 268.83688141 168.79350683 268.83688141 167.5690918 259.54736328 C167.38187057 258.37930145 167.19464935 257.21123962 167.00175476 256.00778198 C166.70021233 254.1791008 166.70021233 254.1791008 166.39257812 252.31347656 C166.07598991 250.37687668 166.07598991 250.37687668 165.75300598 248.40115356 C165.30849358 245.68953245 164.85991984 242.97861819 164.40893555 240.26806641 C163.83651601 236.8229545 163.27912698 233.37559105 162.72533703 229.92744255 C162.18711995 226.59608716 161.63251464 223.26750307 161.08007812 219.93847656 C160.78764473 218.10372269 160.78764473 218.10372269 160.48930359 216.23190308 C158.38281205 202.91660007 158.38281205 202.91660007 150.72460938 192.32128906 C150.09941406 191.79664063 149.47421875 191.27199219 148.83007812 190.73144531 C142.77994691 186.84575627 137.90561061 185.81700555 130.85267639 185.87110901 C130.00296105 185.86572347 129.15324571 185.86033793 128.27778143 185.8547892 C125.44358324 185.84053416 122.60985373 185.84760726 119.77563477 185.85473633 C117.73834356 185.84903149 115.70105556 185.84206679 113.66377258 185.8339386 C108.13898661 185.81600497 102.61435945 185.81717596 97.08955312 185.82288098 C92.47468976 185.82597244 87.85985693 185.81988087 83.24499792 185.81384224 C72.35707237 185.79979803 61.46922529 185.80135755 50.58129883 185.81274414 C39.35396595 185.82422632 28.12687193 185.81014766 16.89957052 185.78334767 C7.25435647 185.76118737 -2.39078263 185.75455402 -12.03602034 185.76042408 C-17.79415676 185.76379392 -23.55214007 185.76137657 -29.31025505 185.74417305 C-34.72515347 185.7287008 -40.13969814 185.73266283 -45.5545826 185.7514782 C-47.53951068 185.75516322 -49.52446499 185.75205816 -51.5093689 185.74159241 C-54.22381046 185.72837495 -56.93708223 185.73993654 -59.651474 185.75758362 C-60.82333351 185.74317611 -60.82333351 185.74317611 -62.01886696 185.72847754 C-69.15374046 185.82359807 -75.23827481 188.4361272 -80.27539062 193.57128906 Z M248.59960938 231.25878906 C246.94739657 234.3688367 247.8433358 236.91606184 248.53710938 240.25878906 C251.38789028 241.02595758 251.38789028 241.02595758 254.53710938 241.25878906 C257.12941441 239.47099249 257.52378542 238.29876091 258.53710938 235.25878906 C258.09675388 233.04387692 258.09675388 233.04387692 256.53710938 231.25878906 C253.420432 230.26410479 251.56843245 229.72649328 248.59960938 231.25878906 Z M-130.46289062 290.25878906 C-132.79115438 293.47401044 -132.86000244 296.36709331 -132.46289062 300.25878906 C-131.11611357 303.37764119 -130.26310212 304.86100206 -127.20033783 306.38350934 C-124.25484728 307.32530948 -121.9384891 307.51050585 -118.85123539 307.51326466 C-117.16459785 307.52201295 -117.16459785 307.52201295 -115.44388682 307.53093797 C-114.21354934 307.52715865 -112.98321186 307.52337932 -111.71559143 307.51948547 C-109.74930288 307.52522379 -109.74930288 307.52522379 -107.74329132 307.53107804 C-104.10623649 307.5413736 -100.46928006 307.53917228 -96.8322171 307.53489745 C-92.90917066 307.53243306 -88.98614808 307.54144079 -85.06311035 307.54893494 C-77.37817456 307.56169178 -69.6932737 307.56347442 -62.0083291 307.56113467 C-55.76278589 307.55935252 -49.51725329 307.56109894 -43.27171135 307.56535912 C-42.38323018 307.5659543 -41.49474901 307.56654949 -40.57934416 307.56716272 C-38.77446922 307.56837445 -36.96959428 307.56958859 -35.16471934 307.5708051 C-18.23433064 307.58168435 -1.30396186 307.57951627 15.62642796 307.57342025 C31.11911244 307.56825026 46.61173406 307.57950802 62.10440611 307.59851847 C78.00839386 307.61788419 93.91235185 307.62615512 109.81635147 307.62239522 C118.74681006 307.62048131 127.67721513 307.62298919 136.60766411 307.63710976 C144.2098612 307.64900838 151.81197183 307.65044552 159.41417008 307.63831959 C163.29338979 307.63242031 167.17245125 307.63136031 171.05166054 307.64332199 C175.25550868 307.65613416 179.45897826 307.6457414 183.66282654 307.63301086 C184.89093329 307.64038515 186.11904005 307.64775943 187.38436216 307.65535718 C195.39007823 307.64446594 195.39007823 307.64446594 202.53710938 304.25878906 C204.64569031 301.36617239 204.75818172 299.1958 204.34960938 295.69628906 C204.27355469 294.931875 204.1975 294.16746094 204.11914062 293.37988281 C203.42330284 290.84404443 202.59081523 289.87136478 200.53710938 288.25878906 C197.45870643 287.23265475 195.36252167 287.13147442 192.13752174 287.1273613 C191.00949532 287.12352015 189.8814689 287.11967901 188.71925986 287.11572146 C187.47463268 287.11658795 186.23000551 287.11745443 184.94766235 287.11834717 C182.97062807 287.11389048 182.97062807 287.11389048 180.95365369 287.10934377 C177.28737258 287.10126461 173.62111103 287.09948369 169.95482206 287.0987463 C166.00381665 287.09689736 162.05282143 287.08935089 158.1018219 287.08261108 C149.45937887 287.06902128 140.81694048 287.06300219 132.17448854 287.05860043 C126.78045204 287.0558394 121.38641734 287.05160233 115.99238205 287.04709625 C101.06421076 287.03490331 86.13604092 287.02460367 71.20786476 287.02122116 C70.2521895 287.02100159 69.29651424 287.02078203 68.31187912 287.02055581 C67.35389252 287.02033753 66.39590591 287.02011925 65.40888941 287.01989436 C63.46757992 287.01945089 61.52627043 287.01900433 59.58496094 287.01855469 C58.62200042 287.01833326 57.65903991 287.01811183 56.66689877 287.01788369 C41.05701764 287.01393411 25.44718315 286.99647532 9.83732004 286.97319517 C-6.18072672 286.94949861 -22.19875006 286.9370201 -38.21681464 286.93585324 C-47.2137866 286.93493559 -56.21069779 286.92916046 -65.20765305 286.91103363 C-72.86737968 286.89565559 -80.52702676 286.8904986 -88.18676589 286.89877173 C-92.09623055 286.90268626 -96.00553487 286.9017097 -99.91497993 286.88771439 C-103.49270024 286.87502346 -107.07013893 286.87613026 -110.64785857 286.8883051 C-112.5577683 286.89120276 -114.46768267 286.87929001 -116.3775543 286.86688304 C-118.07741717 286.87676781 -118.07741717 286.87676781 -119.81162071 286.88685226 C-120.78929323 286.88625518 -121.76696574 286.88565809 -122.77426469 286.88504291 C-125.96891434 287.32913147 -127.85268351 288.39667889 -130.46289062 290.25878906 Z M306.53710938 315.25878906 C304.88710938 316.57878906 303.23710937 317.89878906 301.53710938 319.25878906 C301.80367509 322.19322308 301.80367509 322.19322308 302.53710938 325.25878906 C305.29409122 327.54017851 305.29409122 327.54017851 308.09960938 327.07128906 C310.86966054 326.42506465 310.86966054 326.42506465 312.53710938 323.25878906 C312.61934304 320.16883809 312.61934304 320.16883809 311.53710938 317.25878906 C309.07455253 315.80587633 309.07455253 315.80587633 306.53710938 315.25878906 Z M-9.46289062 316.25878906 C-5.94570419 320.36217324 -2.62478748 324.22163154 1.16552734 328.00073242 C2.02596649 328.86109604 2.88640564 329.72145966 3.7729187 330.6078949 C4.6825235 331.51233841 5.5921283 332.41678192 6.52929688 333.34863281 C7.48501186 334.30247861 8.44050326 335.25654847 9.39578247 336.21083069 C11.88905853 338.700321 14.38532462 341.18679131 16.88226318 343.67260742 C19.43832447 346.218369 21.99149443 348.76702683 24.54492188 351.31542969 C29.53951957 356.29935975 34.53728736 361.28009954 39.53710938 366.25878906 C43.18939325 364.71984617 45.51906879 362.52455662 48.30566406 359.7331543 C48.76466599 359.27605072 49.22366791 358.81894714 49.69657898 358.34799194 C51.20563796 356.84262448 52.70739881 355.33020211 54.20898438 353.81738281 C55.25665412 352.76852066 56.30469413 351.72002823 57.35308838 350.67189026 C59.54498457 348.47843222 61.73348586 346.28166127 63.91943359 344.08227539 C66.72786873 341.25679841 69.54289456 338.43800173 72.36024094 335.62141323 C74.52229937 333.45908361 76.68174754 331.29416349 78.84030914 329.12834358 C79.87797945 328.08748224 80.91626437 327.04723327 81.95516205 326.00759697 C83.40134454 324.5592585 84.84383785 323.10723912 86.28613281 321.6550293 C87.10901794 320.82833237 87.93190308 320.00163544 88.77972412 319.14988708 C90.65056523 317.56696733 90.65056523 317.56696733 90.53710938 316.25878906 C57.53710938 316.25878906 24.53710938 316.25878906 -9.46289062 316.25878906 Z M306.68164062 340.39941406 C301.10753444 348.27197884 298.33000854 356.58650675 299.53710938 366.25878906 C300.33362725 369.08322315 301.34024617 371.56584686 302.53710938 374.25878906 C308.29806614 371.48859927 313.6668473 368.40606646 319.03710938 364.94628906 C320.69293243 363.88963014 322.34920597 362.83367692 324.00585938 361.77832031 C324.88757813 361.21580566 325.76929688 360.65329102 326.67773438 360.07373047 C332.99521356 356.06381412 339.35349867 352.11863581 345.703125 348.15991211 C346.67958984 347.55058838 347.65605469 346.94126465 348.66210938 346.31347656 C349.5309375 345.77190918 350.39976562 345.2303418 351.29492188 344.67236328 C353.05884939 343.56030532 354.8021073 342.41545711 356.53710938 341.25878906 C354.37882354 336.0541727 350.35019661 333.8701449 345.53710938 331.25878906 C331.39750998 325.47831454 316.83480979 328.68586311 306.68164062 340.39941406 Z M-124.46289062 384.25878906 C-131.25552466 391.15337633 -135.44487118 399.43819294 -135.46289062 409.25878906 C-134.61154298 418.80936178 -130.65190401 427.14291597 -123.59179688 433.68457031 C-115.40486413 439.73839398 -106.45843114 441.56967962 -96.46289062 440.25878906 C-87.61216232 438.30623362 -79.99548585 432.56234232 -74.98242188 425.03613281 C-70.81819675 416.99331533 -69.81889912 407.37014877 -72.18164062 398.58691406 C-73.13560153 396.35587647 -74.20297942 394.33101143 -75.46289062 392.25878906 C-75.81351563 391.63488281 -76.16414063 391.01097656 -76.52539062 390.36816406 C-81.03275465 383.16890208 -87.70269622 379.49056541 -95.77539062 377.38378906 C-106.58957895 374.92409133 -115.75527661 377.50858911 -124.46289062 384.25878906 Z M15.71289062 385.89160156 C9.46189211 392.66220449 6.21417927 401.04182565 6.53710938 410.25878906 C7.61538292 418.27326458 9.95099069 424.3828246 15.53710938 430.25878906 C16.32601562 431.09023438 16.32601562 431.09023438 17.13085938 431.93847656 C23.39328218 437.87596234 30.46159348 440.4561238 39.03710938 440.75878906 C48.68148522 440.39655898 55.5607978 437.15137591 62.55664062 430.55175781 C68.90489393 423.20180773 70.91601308 415.17262209 70.81054688 405.68066406 C70.02234689 395.81690427 64.91595363 389.34616885 57.95117188 382.75878906 C45.13955278 372.25951097 27.30348838 375.5171479 15.71289062 385.89160156 Z M158.53710938 385.25878906 C156.15051354 388.08502098 154.28284535 391.00232002 152.53710938 394.25878906 C152.19679688 394.88527344 151.85648437 395.51175781 151.50585938 396.15722656 C148.08559357 403.66280986 148.34315025 412.82202569 151.03710938 420.50878906 C155.39266349 429.87475333 162.05252115 435.48516959 171.53710938 439.25878906 C179.35980708 441.86635496 187.94911824 440.89643838 195.33007812 437.43847656 C196.05839844 437.04917969 196.78671875 436.65988281 197.53710938 436.25878906 C198.17261719 435.93136719 198.808125 435.60394531 199.46289062 435.26660156 C206.26419632 431.13454444 211.00395251 423.3456026 213.03710938 415.75878906 C214.64205691 405.49077245 212.21526628 396.89946262 206.53710938 388.25878906 C200.81598479 381.57613093 193.39337392 377.63894127 184.72460938 376.32128906 C175.09499559 375.72317641 165.68166587 378.73796369 158.53710938 385.25878906 Z " fill="#FFFFFF" transform="translate(143.462890625,30.7412109375)"/>
<path d="M0 0 C1.1189415 -0.00563965 2.237883 -0.0112793 3.39073181 -0.01708984 C4.62404739 -0.01304138 5.85736298 -0.00899292 7.12805176 -0.00482178 C8.42235611 -0.00832642 9.71666046 -0.01183105 11.05018616 -0.01544189 C14.60591163 -0.02457899 18.16152136 -0.02101626 21.71724892 -0.01468372 C25.43324731 -0.00963053 29.1492356 -0.01431327 32.86523438 -0.01745605 C39.1063414 -0.02109769 45.34740113 -0.01629143 51.58850098 -0.0067749 C58.81056683 0.00411005 66.03251977 0.00058461 73.25458288 -0.01042771 C79.44824362 -0.01949497 85.6418703 -0.02078863 91.83553553 -0.01555037 C95.5378317 -0.01242757 99.24007476 -0.01202979 102.94236755 -0.01862335 C107.06813273 -0.02545745 111.19370234 -0.01599325 115.31945801 -0.00482178 C117.16943138 -0.01089447 117.16943138 -0.01089447 119.05677795 -0.01708984 C120.17571945 -0.0114502 121.29466095 -0.00581055 122.44750977 0 C123.42385628 0.00075405 124.40020279 0.0015081 125.40613556 0.002285 C127.72375488 0.25396729 127.72375488 0.25396729 129.72375488 2.25396729 C131.78512707 9.45931411 133.31218908 16.75143122 132.72375488 24.25396729 C130.98799459 25.98972758 128.62737742 25.38385809 126.26405334 25.38768005 C125.07917328 25.39194504 123.89429321 25.39621002 122.67350769 25.40060425 C121.36179092 25.40015106 120.05007416 25.39969788 118.6986084 25.39923096 C117.31256011 25.40222089 115.92651265 25.40562303 114.54046631 25.40940857 C110.76571381 25.41826966 106.99098394 25.42058756 103.21622205 25.42122436 C100.06993237 25.42217172 96.92364802 25.42584802 93.77736038 25.42939645 C86.35706402 25.43754903 78.93677981 25.43997995 71.51647949 25.43927002 C63.8508066 25.43866901 56.18520404 25.44922353 48.51954895 25.46501368 C41.94799865 25.47806996 35.37647139 25.48345472 28.80490822 25.48281461 C24.87567199 25.48255906 20.94649822 25.48544162 17.01727486 25.49599266 C13.32290392 25.50564158 9.62865554 25.50577504 5.9342804 25.49847603 C3.92602448 25.49692409 1.91776867 25.50529925 -0.09046936 25.51391602 C-1.27816925 25.50972153 -2.46586914 25.50552704 -3.68955994 25.50120544 C-4.72620002 25.50175021 -5.7628401 25.50229498 -6.83089352 25.50285625 C-9.27624512 25.25396729 -9.27624512 25.25396729 -11.27624512 23.25396729 C-10.15143251 0.00784015 -10.15143251 0.00784015 0 0 Z M0.72375488 9.25396729 C0.39375488 11.56396729 0.06375488 13.87396729 -0.27624512 16.25396729 C40.31375488 16.25396729 80.90375488 16.25396729 122.72375488 16.25396729 C122.22875488 12.78896729 122.22875488 12.78896729 121.72375488 9.25396729 C81.79375488 9.25396729 41.86375488 9.25396729 0.72375488 9.25396729 Z " fill="#FFFFFF" transform="translate(95.2762451171875,266.74603271484375)"/>
<path d="M0 0 C8.55431423 3.65589407 13.97674517 9.28537036 17.8125 17.6875 C20.94982539 26.43898663 20.83751557 35.86341229 16.875 44.375 C11.70125455 53.41806217 5.09934666 58.23788953 -5 61 C-14.17159633 62.35916428 -22.02460914 60.70080262 -30 56 C-36.91971503 50.79039458 -40.92235085 44.57533763 -42.5625 36.08984375 C-43.4994592 28.68201008 -43.4994592 28.68201008 -41.6640625 26.17578125 C-40 25 -40 25 -37.4375 25.0625 C-35 26 -35 26 -33.90234375 27.78515625 C-32.99692651 30.00754402 -32.53080133 32.01472698 -32.125 34.375 C-30.93785179 39.93633278 -28.73771636 43.47420027 -24.4375 47.25 C-18.3340966 50.35718718 -11.96900405 51.94104561 -5.25 50 C0.6065405 47.60700496 4.65854723 44.20690618 7.9375 38.8125 C9.74809085 32.31567399 10.20694616 25.89319883 7.375 19.625 C4.29161992 14.30807605 -0.07637803 10.79086245 -6 9 C-8.36457186 8.4565135 -10.73038302 7.94142989 -13.109375 7.46484375 C-15 7 -15 7 -16 6 C-16.04080783 4.00041636 -16.04254356 1.99954746 -16 0 C-10.8019045 -3.25188913 -5.60818955 -1.56090005 0 0 Z " fill="#FFFFFF" transform="translate(191,48)"/>
<path d="M0 0 C1.52489548 -0.00639748 1.52489548 -0.00639748 3.08059692 -0.01292419 C4.20529892 -0.01247101 5.33000092 -0.01201782 6.48878479 -0.0115509 C7.66590027 -0.01490952 8.84301575 -0.01826813 10.05580139 -0.02172852 C13.29338649 -0.02962407 16.5309332 -0.03290745 19.76852679 -0.0335443 C22.46745779 -0.03449183 25.16638259 -0.03816833 27.86531121 -0.0417164 C34.23085375 -0.04986842 40.59638215 -0.05229996 46.96192932 -0.05158997 C53.5369756 -0.050989 60.11193988 -0.06154278 66.68696541 -0.07733363 C72.32434141 -0.0903921 77.96169056 -0.09577458 83.59908158 -0.09513456 C86.96940842 -0.09487906 90.33966245 -0.09775829 93.70997429 -0.10831261 C97.46704382 -0.11805515 101.22389968 -0.11525722 104.98097229 -0.10920715 C106.10365005 -0.11482666 107.22632782 -0.12044617 108.38302612 -0.12623596 C109.91215134 -0.11994423 109.91215134 -0.11994423 111.47216797 -0.11352539 C112.36132117 -0.11407016 113.25047438 -0.11461493 114.16657162 -0.1151762 C116.29957581 0.13371277 116.29957581 0.13371277 118.29957581 2.13371277 C118.54957581 4.63371277 118.54957581 4.63371277 118.29957581 7.13371277 C115.78997116 9.64331741 114.99226865 9.38630989 111.52359009 9.39440918 C110.51547775 9.40149399 109.50736542 9.4085788 108.46870422 9.4158783 C107.35851929 9.41340088 106.24833435 9.41092346 105.10450745 9.40837097 C103.9386058 9.4134819 102.77270416 9.41859283 101.57147217 9.42385864 C97.70084054 9.43780795 93.8303859 9.43679385 89.95973206 9.43449402 C87.95630609 9.43739705 85.95288005 9.44030421 83.9494552 9.44390076 C77.64760548 9.45500487 71.34581535 9.45542839 65.04396057 9.4493866 C58.53873178 9.44334579 52.03371921 9.45565829 45.52852732 9.47695667 C39.94715591 9.49455974 34.3658534 9.50057606 28.78445524 9.49731892 C25.44928318 9.49550373 22.11430011 9.49947203 18.77914619 9.51203346 C15.06060579 9.52431907 11.34257053 9.5176532 7.6240387 9.50602722 C6.51587799 9.51367096 5.40771729 9.5213147 4.26597595 9.52919006 C3.25504379 9.52217575 2.24411163 9.51516144 1.20254517 9.50793457 C0.32298692 9.50810231 -0.55657133 9.50827005 -1.46278286 9.50844288 C-4.17806796 9.05372341 -5.10652778 8.3537453 -6.70042419 6.13371277 C-6.17613053 0.62862925 -5.29790762 0.00998954 0 0 Z " fill="#FFFFFF" transform="translate(106.70042419433594,244.8662872314453)"/>
<path d="M0 0 C4.41212202 2.41557518 7.08049824 5.33906962 9.03515625 9.97265625 C10.55416706 15.26071265 10.55202242 20.03382172 7.97265625 24.9609375 C4.33029625 29.98148777 0.78909637 32.85193094 -5.33984375 34.1484375 C-11.36676892 34.24599564 -15.67238199 33.16462553 -20.33984375 29.1484375 C-24.48812226 23.65477136 -26.18988455 19.04731939 -25.33984375 12.1484375 C-23.97543458 7.42080317 -21.76424221 4.05469818 -17.77734375 1.1484375 C-12.1365085 -1.93984102 -6.02664445 -2.19333638 0 0 Z M-14.33984375 11.1484375 C-15.99843975 13.95739813 -15.99843975 13.95739813 -16.33984375 17.1484375 C-15.00857928 20.07721934 -13.6067941 21.88148715 -11.33984375 24.1484375 C-7.43571078 24.58223005 -5.22082897 24.77440069 -1.96484375 22.4609375 C-0.12062568 19.83647333 0.58184648 18.35913803 0.66015625 15.1484375 C-0.62991763 12.22879662 -1.66278516 10.5927572 -4.33984375 8.8359375 C-8.573784 7.38052054 -10.93160304 8.52671387 -14.33984375 11.1484375 Z " fill="#FFFFFF" transform="translate(48.33984375,422.8515625)"/>
<path d="M0 0 C4.12593192 2.87855716 7.06537651 6.00862953 8.6875 10.875 C9.3790289 17.99434674 9.21392002 23.18795946 4.6875 28.875 C-0.30139946 32.59221921 -5.05276102 34.1524707 -11.3125 33.875 C-17.82928538 31.91996439 -21.58486069 28.46645897 -25.3125 22.875 C-26.71933213 16.59836434 -26.44048812 11.60259986 -23.3125 5.875 C-16.96945328 -1.27588758 -9.08715365 -3.08620313 0 0 Z M-14.3125 9.875 C-16.65418764 13.38753146 -16.80873677 14.73969356 -16.3125 18.875 C-14.90371904 21.8651643 -14.90371904 21.8651643 -12.3125 23.875 C-8.33901567 24.5135957 -6.28980682 24.54368361 -2.9375 22.25 C-0.91255464 19.29046447 -0.3125 17.4698199 -0.3125 13.875 C-2.25576159 10.37712914 -3.4765285 9.13624109 -7.3125 7.9375 C-10.44408696 7.8722586 -11.79056604 8.0736186 -14.3125 9.875 Z " fill="#FFFFFF" transform="translate(333.3125,423.125)"/>
<path d="M0 0 C4.6850449 3.30082709 8.71967586 7.13334065 9.75 12.9375 C10.32768637 18.94543827 9.04715447 23.00787818 5.75 27.9375 C1.95429268 31.73320732 -1.96504575 33.88432628 -7.421875 33.97265625 C-14.03117869 33.51798939 -18.07567485 31.34688733 -22.5625 26.375 C-25.8840372 21.57722404 -25.97800525 16.58581662 -25.25 10.9375 C-23.32207105 5.86263769 -20.1762961 1.96720332 -15.2734375 -0.44140625 C-10.08869133 -2.03286309 -5.09967073 -1.66720005 0 0 Z M-13.0625 9.5 C-15.71068912 12.4508393 -16.25 13.98789058 -16.25 17.9375 C-14.51655125 21.66593964 -14.51655125 21.66593964 -11.25 23.9375 C-7.41385043 24.29269903 -5.10370366 24.48474594 -1.8125 22.375 C0.35396028 18.99532196 0.31288002 16.87766013 -0.25 12.9375 C-2.29890706 9.94294352 -3.75951555 9.10447343 -7.1875 7.9375 C-10.34004629 7.68961975 -10.34004629 7.68961975 -13.0625 9.5 Z " fill="#FFFFFF" transform="translate(190.25,423.0625)"/>
<path d="M0 0 C4.0011912 2.07219586 6.51229786 4.05622045 8.10546875 8.2734375 C8.81262008 13.046709 8.59660112 16.32625365 6.35546875 20.6484375 C3.63763594 23.81924244 1.71799064 25.98113746 -2.48046875 26.7421875 C-10.94011136 26.83697341 -10.94011136 26.83697341 -14.45703125 24.0234375 C-18.39868181 19.57644713 -19.36122748 16.38289436 -19.20703125 10.5234375 C-18.70860128 6.93474173 -17.29767295 4.92954149 -14.89453125 2.2734375 C-10.15846733 -0.88393844 -5.49116786 -2.10589118 0 0 Z M-5.89453125 8.2734375 C-7.21453125 9.2634375 -8.53453125 10.2534375 -9.89453125 11.2734375 C-9.56453125 12.9234375 -9.23453125 14.5734375 -8.89453125 16.2734375 C-6.54919174 17.04299886 -6.54919174 17.04299886 -3.89453125 17.2734375 C-1.91423443 16.20998698 -1.91423443 16.20998698 -0.89453125 14.2734375 C-0.81810416 12.16194105 -0.81810416 12.16194105 -1.89453125 10.2734375 C-3.87830795 8.98907016 -3.87830795 8.98907016 -5.89453125 8.2734375 Z " fill="FFFFFF" transform="translate(184.89453125,64.7265625)"/>
<path d="M0 0 C1.12347839 0.00607269 1.12347839 0.00607269 2.26965332 0.01226807 C3.03894165 0.01035461 3.80822998 0.00844116 4.60083008 0.00646973 C6.22823412 0.00510799 7.85564902 0.00880368 9.48303223 0.01715088 C11.97855963 0.02785086 14.47336714 0.01725555 16.96887207 0.00445557 C18.54830075 0.00577716 20.12772898 0.00833956 21.70715332 0.01226807 C22.45613892 0.0082196 23.20512451 0.00417114 23.97680664 0 C29.25848089 0.04797064 29.25848089 0.04797064 31.48840332 2.27789307 C31.73840332 4.77789307 31.73840332 4.77789307 31.48840332 7.27789307 C28.97135527 9.79494112 27.41167433 9.52458906 23.97680664 9.55578613 C22.85332825 9.54971344 22.85332825 9.54971344 21.70715332 9.54351807 C20.93786499 9.54543152 20.16857666 9.54734497 19.37597656 9.54931641 C17.74857252 9.55067815 16.12115762 9.54698246 14.49377441 9.53863525 C11.99824701 9.52793527 9.5034395 9.53853058 7.00793457 9.55133057 C5.42850589 9.55000897 3.84907766 9.54744657 2.26965332 9.54351807 C1.52066772 9.54756653 0.77168213 9.55161499 0 9.55578613 C-5.28167425 9.5078155 -5.28167425 9.5078155 -7.51159668 7.27789307 C-7.76159668 4.77789307 -7.76159668 4.77789307 -7.51159668 2.27789307 C-4.99454863 -0.23915498 -3.43486769 0.03119707 0 0 Z " fill="#FFFFFF" transform="translate(256.5115966796875,260.72210693359375)"/>
<path d="M0 0 C0.79289932 -0.0033284 1.58579865 -0.0066568 2.40272522 -0.01008606 C4.08317483 -0.01515851 5.76363454 -0.01749429 7.4440918 -0.01733398 C10.02083884 -0.01951911 12.59715701 -0.03766734 15.17382812 -0.05664062 C16.80338395 -0.0595747 18.43294181 -0.0615594 20.0625 -0.0625 C20.83649643 -0.06968552 21.61049286 -0.07687103 22.40794373 -0.08427429 C27.86883372 -0.06085378 27.86883372 -0.06085378 30.09765625 2.16796875 C29.84765625 5.23046875 29.84765625 5.23046875 29.09765625 8.16796875 C26.05237406 9.69060984 22.87620379 9.33082412 19.53515625 9.3359375 C18.78806396 9.3392659 18.04097168 9.3425943 17.27124023 9.34602356 C15.69092424 9.35108841 14.11059754 9.35343202 12.53027344 9.35327148 C10.10724382 9.35546009 7.68466789 9.37362576 5.26171875 9.39257812 C3.72786615 9.39551167 2.19401137 9.39749673 0.66015625 9.3984375 C-0.06695557 9.40562302 -0.79406738 9.41280853 -1.54321289 9.42021179 C-6.67351572 9.39679678 -6.67351572 9.39679678 -8.90234375 7.16796875 C-9.08984375 4.10546875 -9.08984375 4.10546875 -8.90234375 1.16796875 C-6.88259642 -0.85177858 -2.77149858 0.00397436 0 0 Z " fill="#FFFFFF" transform="translate(254.90234375,244.83203125)"/>
<path d="M0 0 C0.77070328 -0.0033284 1.54140656 -0.0066568 2.33546448 -0.01008606 C3.96883546 -0.01515835 5.60221685 -0.01749429 7.2355957 -0.01733398 C9.73991924 -0.01951905 12.24380146 -0.0376672 14.74804688 -0.05664062 C16.33202974 -0.05957472 17.9160147 -0.06155941 19.5 -0.0625 C20.25212265 -0.06968552 21.0042453 -0.07687103 21.77915955 -0.08427429 C27.08758346 -0.06085404 27.08758346 -0.06085404 29.31640625 2.16796875 C29.56640625 4.66796875 29.56640625 4.66796875 29.31640625 7.16796875 C26.80338351 9.68099149 25.23555555 9.42439906 21.80480957 9.47151184 C20.68133118 9.47014473 20.68133118 9.47014473 19.53515625 9.46875 C18.38122375 9.47517769 18.38122375 9.47517769 17.20397949 9.48173523 C15.5765888 9.48748132 13.94917241 9.48797673 12.32177734 9.48364258 C9.82605412 9.48048097 7.33151418 9.50394233 4.8359375 9.52929688 C3.25651192 9.53156962 1.67708314 9.53227348 0.09765625 9.53125 C-1.02582214 9.54506462 -1.02582214 9.54506462 -2.17199707 9.55915833 C-4.27539062 9.5402832 -4.27539062 9.5402832 -7.68359375 9.16796875 C-9.68359375 6.16796875 -9.68359375 6.16796875 -9.37109375 3.54296875 C-7.97052416 -1.29536257 -4.35409305 0.00642492 0 0 Z " fill="#FFFFFF" transform="translate(261.68359375,276.83203125)"/>
</svg>
