<?xml version="1.0" encoding="UTF-8"?>
<svg version="1.1" xmlns="http://www.w3.org/2000/svg" width="512" height="512">
<path d="M0 0 C6.77327206 4.01670785 10.80880892 9.03168013 12.96875 16.6171875 C14.40711573 23.73709785 13.71657278 30.41399252 10.4375 36.9375 C6.75368249 42.26787231 3.26705362 45.11408076 -2.5625 47.9375 C-2.56836624 48.63383545 -2.57423248 49.3301709 -2.58027649 50.04760742 C-2.63839172 56.63816318 -2.71057465 63.22840121 -2.79821491 69.81863403 C-2.84277556 73.20605042 -2.88206199 76.5933505 -2.90893555 79.98095703 C-2.94258992 83.88343252 -2.99491401 87.78528692 -3.05078125 91.6875 C-3.05717117 92.89301514 -3.0635611 94.09853027 -3.07014465 95.34057617 C-3.24354313 105.33213977 -5.18447888 113.72891151 -12.5625 120.9375 C-21.55393473 126.8440685 -30.06182574 127.08395597 -40.5234375 127.03515625 C-41.66914215 127.0337413 -42.8148468 127.03232635 -43.99526978 127.03086853 C-47.64270678 127.0252858 -51.29008165 127.01273641 -54.9375 127 C-57.41536369 126.99498277 -59.89322835 126.99042025 -62.37109375 126.98632812 C-68.43491965 126.97532201 -74.4986993 126.9580692 -80.5625 126.9375 C-80.5625 132.2175 -80.5625 137.4975 -80.5625 142.9375 C-79.35837967 142.92861755 -78.15425934 142.91973511 -76.91365051 142.9105835 C-65.56911283 142.82951679 -54.22463387 142.76954366 -42.87987232 142.73025131 C-37.04731492 142.70937163 -31.21499124 142.68104652 -25.38256836 142.63574219 C-19.75453581 142.59229879 -14.12672816 142.56836577 -8.49854088 142.55799103 C-6.3507095 142.55059701 -4.20289051 142.53615833 -2.0551548 142.51457977 C0.95202666 142.48556634 3.9582774 142.48154321 6.96557617 142.48339844 C7.85462143 142.46901733 8.74366669 142.45463623 9.65965271 142.43981934 C13.78674819 142.46739188 15.90467537 142.60766493 19.4901886 144.82720947 C21.71610449 147.23942213 22.09419804 148.20152014 22 151.4375 C21.82169652 154.72260653 21.59313386 155.72998819 19.5625 158.4375 C15.28102045 161.45972086 11.48101036 161.07154803 6.39794922 161.05102539 C4.99299698 161.05124443 4.99299698 161.05124443 3.55966187 161.0514679 C0.45381378 161.05076944 -2.65197485 161.04298015 -5.7578125 161.03515625 C-7.90729744 161.03329183 -10.0567828 161.03186804 -12.20626831 161.03086853 C-17.87145149 161.02704522 -23.53660915 161.01721651 -29.20178223 161.00616455 C-34.97957006 160.99594644 -40.757362 160.99137005 -46.53515625 160.98632812 C-57.8776172 160.97559409 -69.22005249 160.95799878 -80.5625 160.9375 C-80.5625 168.8575 -80.5625 176.7775 -80.5625 184.9375 C-62.50810008 184.8995093 -44.45393146 184.840508 -26.39970016 184.75359726 C-18.01695175 184.7137738 -9.63429767 184.68139817 -1.25146484 184.66650391 C6.05431985 184.65350446 13.35989728 184.62658374 20.66556525 184.58288693 C24.5345536 184.5602334 28.40328594 184.54459163 32.2723465 184.54561615 C35.91355831 184.54636049 39.55420341 184.52850185 43.19526863 184.49633217 C45.16970514 184.4837423 47.14423659 184.49091482 49.11869812 184.49864197 C50.29376419 184.48472916 51.46883026 184.47081635 52.67950439 184.45648193 C53.70085102 184.45279476 54.72219765 184.44910759 55.77449417 184.44530869 C59.14306879 183.80295506 60.33322185 182.59105247 62.4375 179.9375 C63.04549026 177.65279905 63.04549026 177.65279905 62.98339844 175.16894531 C63.00311707 174.22827209 63.02283569 173.28759888 63.04315186 172.31842041 C63.04438049 171.31099792 63.04560913 170.30357544 63.046875 169.265625 C63.06341125 168.22807068 63.07994751 167.19051636 63.09698486 166.121521 C63.14553985 162.8101209 63.16685302 159.49918029 63.1875 156.1875 C63.21565332 153.94138304 63.24557984 151.69528755 63.27734375 149.44921875 C63.35130062 143.94539613 63.4028992 138.44170313 63.4375 132.9375 C62.4882666 132.63585937 61.5390332 132.33421875 60.56103516 132.0234375 C55.17849687 130.15212827 51.90536161 126.50733396 49.10546875 121.60546875 C45.59556342 113.72988612 45.16543561 106.71981534 48.1875 98.625 C51.48369661 91.26042085 55.74678461 87.17117399 63.0625 83.6875 C70.91267219 81.94301729 79.31986179 81.84831692 86.4375 85.9375 C92.61339504 90.12239808 96.99522659 95.45400589 98.4375 102.9375 C99.11096182 112.00333215 98.42633529 118.73697473 93.125 126.1875 C90.39816267 128.97775216 87.83122138 131.01930965 84.4375 132.9375 C83.4475 132.9375 82.4575 132.9375 81.4375 132.9375 C81.44749275 133.85045837 81.44749275 133.85045837 81.45768738 134.78186035 C81.52428054 141.14130345 81.5693999 147.50064678 81.60229492 153.86035156 C81.61734099 156.23083523 81.63778273 158.60129125 81.66381836 160.97167969 C81.70038506 164.3874394 81.71726868 167.80282962 81.73046875 171.21875 C81.74595261 172.27114868 81.76143646 173.32354736 81.77738953 174.40783691 C81.77929624 182.82620083 80.38173013 189.95370405 74.34467888 196.21120167 C66.60343697 203.21824917 58.18908427 203.6434695 48.17529297 203.50512695 C46.76496939 203.50371374 45.35464214 203.50451379 43.94432068 203.50733948 C40.14511836 203.50876443 36.34671767 203.47952633 32.54770041 203.44446969 C28.56660198 203.41305072 24.58548184 203.41026328 20.60427856 203.40434265 C13.07854277 203.38884956 5.55317347 203.3478832 -1.9724015 203.2975952 C-10.54557433 203.2415598 -19.11876537 203.21417969 -27.69207597 203.18911803 C-45.31576361 203.13696274 -62.9390888 203.04809333 -80.5625 202.9375 C-80.5625 211.1875 -80.5625 219.4375 -80.5625 227.9375 C-15.5525 227.9375 49.4575 227.9375 116.4375 227.9375 C117.0975 226.2875 117.7575 224.6375 118.4375 222.9375 C122.73388658 216.38306933 127.79981902 212.70774967 135.4375 210.9375 C143.3298599 209.98118341 149.9562485 210.90340495 156.56640625 215.37890625 C162.7997097 220.32651911 165.87436792 225.35735905 166.84765625 233.2734375 C167.22482636 242.19012566 165.77513002 248.97870451 159.828125 255.77734375 C154.29278095 260.96990274 148.46503729 263.06296838 140.9375 263.3125 C132.56235117 263.02370176 127.46770003 260.40394182 121.19921875 254.94921875 C119.4375 252.9375 119.4375 252.9375 116.4375 246.9375 C18.9225 246.4425 18.9225 246.4425 -80.5625 245.9375 C-80.5625 254.1875 -80.5625 262.4375 -80.5625 270.9375 C-78.79319122 270.92639694 -77.02388245 270.91529388 -75.20095825 270.90385437 C-58.51602036 270.80243713 -41.83114501 270.72721356 -25.14596748 270.67843914 C-16.56821406 270.65269613 -7.99069129 270.61762069 0.58691406 270.56030273 C8.06624516 270.51034773 15.54540916 270.47818063 23.02490246 270.46705753 C26.98253967 270.4605591 30.93969897 270.44536865 34.89718246 270.40884972 C38.62863705 270.37469825 42.35942073 270.36448505 46.09101677 270.37196159 C48.10020927 270.36994828 50.10933011 270.34315393 52.11833191 270.31539917 C60.76840904 270.36425389 67.77250446 271.71494169 74.34467888 277.66379833 C81.30670782 284.88004972 81.87085793 293.11435117 81.73046875 302.65625 C81.72622391 303.75473267 81.72197906 304.85321533 81.71760559 305.98498535 C81.70090661 309.4694136 81.66326996 312.95324861 81.625 316.4375 C81.60994185 318.80988744 81.59625543 321.18228401 81.58398438 323.5546875 C81.55103188 329.34915836 81.50092035 335.14328678 81.4375 340.9375 C82.06076172 341.08227783 82.68402344 341.22705566 83.32617188 341.3762207 C88.17264764 342.66461661 91.7144975 346.01909143 94.75 349.875 C98.84640165 357.3092104 99.65494303 364.89120728 97.97265625 373.24609375 C95.84019394 379.7191894 91.65344907 384.82798532 85.8125 388.3125 C78.98479185 391.59991504 71.17539412 392.30638258 63.828125 390.18359375 C55.58744486 386.6577994 51.15441341 382.05752622 47.4375 373.9375 C45.13273753 366.54486566 45.98759357 359.26547026 49.10546875 352.26953125 C52.69103613 345.99215961 56.63260387 343.0999114 63.4375 340.9375 C63.39588038 334.31676123 63.32360345 327.69686647 63.22998047 321.07666016 C63.20175089 318.82445904 63.1805463 316.57215848 63.16650391 314.31982422 C63.1451024 311.08248917 63.09846505 307.84635226 63.046875 304.609375 C63.04503204 303.09824127 63.04503204 303.09824127 63.04315186 301.55657959 C63.02343323 300.61590637 63.0037146 299.67523315 62.98339844 298.70605469 C62.97451599 297.87998718 62.96563354 297.05391968 62.95648193 296.20281982 C62.23696834 293.06219335 60.92199243 291.95594751 58.4375 289.9375 C55.71961831 289.33469893 55.71961831 289.33469893 52.67950439 289.41851807 C51.50443832 289.40460526 50.32937225 289.39069244 49.11869812 289.37635803 C47.83332657 289.3813884 46.54795502 289.38641876 45.22363281 289.39160156 C43.85359015 289.38286558 42.48355769 289.3723797 41.11354065 289.36027527 C37.39687282 289.33239712 33.68053761 289.32901096 29.9637804 289.32999516 C26.07862192 289.32686758 22.19361359 289.30125266 18.30853271 289.27801514 C10.95277152 289.23743958 3.59709901 289.21711082 -3.75875688 289.20404124 C-12.13361873 289.18817643 -20.50832955 289.14976304 -28.88310385 289.10944796 C-46.10952801 289.02702774 -63.33591901 288.97374878 -80.5625 288.9375 C-80.5625 296.8575 -80.5625 304.7775 -80.5625 312.9375 C-77.71085205 312.92178955 -74.8592041 312.9060791 -71.92114258 312.88989258 C-62.50152083 312.84019336 -53.0818933 312.80704964 -43.66217518 312.78206348 C-37.95073832 312.76640461 -32.23943575 312.74516204 -26.52807617 312.71118164 C-21.01676297 312.67859648 -15.50557896 312.66064866 -9.99417686 312.65286827 C-7.8910182 312.64732328 -5.78786665 312.63649534 -3.68476295 312.62030983 C-0.73996295 312.59854702 2.20430249 312.59553263 5.14916992 312.59692383 C6.45468559 312.58074509 6.45468559 312.58074509 7.78657532 312.5642395 C13.72489332 312.59461538 17.12964367 313.62964367 21.4375 317.9375 C21.7734375 319.9609375 21.7734375 319.9609375 21.8125 322.3125 C21.84085938 323.08335937 21.86921875 323.85421875 21.8984375 324.6484375 C21.22888309 327.9735128 20.17883558 328.92008131 17.4375 330.9375 C14.28957321 331.52386329 11.18081154 331.44251797 7.98730469 331.39160156 C7.03087067 331.39218567 6.07443665 331.39276978 5.08901978 331.39337158 C1.92876856 331.39058563 -1.23053862 331.35946885 -4.390625 331.328125 C-6.58208704 331.32066445 -8.77355576 331.31497064 -10.96502686 331.31097412 C-16.7322838 331.29570329 -22.49913765 331.25640856 -28.26623535 331.2121582 C-34.1513931 331.171237 -40.03661599 331.15296981 -45.921875 331.1328125 C-57.46892708 331.08991607 -69.01568002 331.02164687 -80.5625 330.9375 C-80.5625 336.2175 -80.5625 341.4975 -80.5625 346.9375 C-79.06992676 346.92702637 -77.57735352 346.91655273 -76.03955078 346.90576172 C-70.46714709 346.86938158 -64.89475376 346.8465342 -59.32226562 346.82763672 C-56.91697419 346.81762006 -54.5116948 346.80400291 -52.10644531 346.78662109 C-48.63603733 346.7621816 -45.16579128 346.75097321 -41.6953125 346.7421875 C-40.63136261 346.73186493 -39.56741272 346.72154236 -38.47122192 346.71090698 C-28.03938936 346.70936249 -18.46738742 347.54552512 -10.5625 354.9375 C-5.79501134 361.2874744 -3.41527312 366.61545679 -3.48413086 374.54467773 C-3.49000717 375.66942001 -3.49588348 376.79416229 -3.50193787 377.95298767 C-3.51032181 379.16346268 -3.51870575 380.37393768 -3.52734375 381.62109375 C-3.52363192 384.18294672 -3.51770434 386.74479727 -3.50976562 389.30664062 C-3.49751611 393.3471692 -3.49590259 397.38663708 -3.53833008 401.42700195 C-3.57817905 405.3255192 -3.55389897 409.22244429 -3.52734375 413.12109375 C-3.56117409 414.93376991 -3.56117409 414.93376991 -3.59568787 416.7830658 C-3.70635059 422.81632675 -3.70635059 422.81632675 -0.78820801 427.77032471 C1.24111521 429.03298794 3.25258438 429.98104302 5.4375 430.9375 C10.98129131 436.39567291 13.41449069 442.56894523 13.75 450.3125 C13.53822766 457.63733158 11.34855844 463.98122177 6.30078125 469.3671875 C-0.18918794 474.83672128 -7.61145317 477.39527283 -16 476.75 C-23.74096322 475.61717611 -28.57880832 472.08247231 -33.875 466.5 C-38.76646952 459.07221295 -39.50807571 452.79152709 -38.5625 443.9375 C-36.89829131 437.35991329 -33.09886717 431.88735879 -27.5625 427.9375 C-25.57165993 427.24395817 -23.57212379 426.57456882 -21.5625 425.9375 C-21.65476749 418.32008876 -21.76207333 410.70299626 -21.87988281 403.0859375 C-21.9181877 400.49418964 -21.95303787 397.90238834 -21.984375 395.31054688 C-22.02999217 391.58704517 -22.0879931 387.86391185 -22.1484375 384.140625 C-22.16576431 382.39981659 -22.16576431 382.39981659 -22.18344116 380.62384033 C-22.2132457 379.00261261 -22.2132457 379.00261261 -22.24365234 377.34863281 C-22.26363785 375.92300018 -22.26363785 375.92300018 -22.2840271 374.46856689 C-22.57685364 371.80703843 -23.10881712 370.17524813 -24.5625 367.9375 C-30.06647103 365.11040663 -36.30624842 365.59610808 -42.34765625 365.56640625 C-43.48150253 365.55737778 -44.61534882 365.5483493 -45.78355408 365.53904724 C-48.17476774 365.52457187 -50.56602078 365.51566477 -52.95727539 365.51196289 C-56.61607056 365.50002912 -60.27319913 365.45078238 -63.93164062 365.40039062 C-66.25780429 365.39093016 -68.58397828 365.38369333 -70.91015625 365.37890625 C-72.5493679 365.34960777 -72.5493679 365.34960777 -74.22169495 365.31971741 C-80.39654968 365.28043349 -80.39654968 365.28043349 -85.58032227 368.35913086 C-86.23444092 369.20999268 -86.88855957 370.06085449 -87.5625 370.9375 C-101.0432688 378.19396952 -119.99984975 371.39989272 -133.76708984 367.27734375 C-150.32860364 362.0254609 -165.33155835 353.10602274 -178.5625 341.9375 C-179.52800781 341.12410156 -180.49351562 340.31070312 -181.48828125 339.47265625 C-206.80160071 317.31037241 -223.85249507 283.5912994 -226.5625 249.9375 C-228.29844202 211.40572601 -218.72184276 176.73272934 -193.5625 146.9375 C-192.57056641 145.75994141 -192.57056641 145.75994141 -191.55859375 144.55859375 C-168.86552796 118.3127975 -135.51036832 103.19763532 -101.3125 100 C-95.76353837 99.75536836 -92.23330657 99.8913218 -87.5625 102.9375 C-86.92376953 103.78965088 -86.28503906 104.64180176 -85.62695312 105.51977539 C-80.9301467 109.22535809 -76.47221654 108.59771964 -70.65625 108.49609375 C-69.49879272 108.49376236 -68.34133545 108.49143097 -67.14880371 108.48902893 C-64.70443338 108.47929619 -62.26008546 108.45752031 -59.81591797 108.42456055 C-56.07615732 108.37518033 -52.33771341 108.36308043 -48.59765625 108.35742188 C-46.22134018 108.34333435 -43.84503553 108.32712941 -41.46875 108.30859375 C-40.3509314 108.30323105 -39.23311279 108.29786835 -38.0814209 108.29234314 C-37.03683716 108.27635574 -35.99225342 108.26036835 -34.91601562 108.24389648 C-34.0006604 108.23325668 -33.08530518 108.22261688 -32.14221191 108.21165466 C-29.22913882 107.90207259 -27.145992 107.32585329 -24.5625 105.9375 C-22.38023003 102.92080996 -22.2948849 100.18095589 -22.24365234 96.52636719 C-22.22378265 95.44554871 -22.20391296 94.36473022 -22.18344116 93.25115967 C-22.17188995 92.09062073 -22.16033875 90.93008179 -22.1484375 89.734375 C-22.12907135 88.54144836 -22.1097052 87.34852173 -22.0897522 86.1194458 C-22.02996733 82.30886996 -21.98357473 78.4982639 -21.9375 74.6875 C-21.89931928 72.10415348 -21.8602675 69.52081968 -21.8203125 66.9375 C-21.72426656 60.60427954 -21.63921564 54.27098251 -21.5625 47.9375 C-22.5117334 47.63658447 -23.4609668 47.33566895 -24.43896484 47.02563477 C-30.36169366 44.96235492 -34.14425565 40.2918964 -37 34.8125 C-39.60909225 28.15364283 -39.77726731 20.96246633 -37.71484375 14.12890625 C-34.66885264 7.34512266 -29.93033795 2.13995818 -23.26171875 -1.22265625 C-15.96201289 -3.49391061 -6.94691066 -3.20951496 0 0 Z M-20.5625 20.9375 C-21.47916667 23.9375 -21.47916667 23.9375 -20.5625 26.9375 C-18.05848994 30.02417706 -18.05848994 30.02417706 -14.5625 31.9375 C-10.53690332 32.09852387 -9.11803847 31.43606017 -6.125 28.75 C-4.31461975 26.02754629 -4.31461975 26.02754629 -4.5625 22.875 C-5.71814512 19.48029245 -6.62742057 17.99998825 -9.5625 15.9375 C-14.99516828 14.89720182 -17.34816896 16.58869918 -20.5625 20.9375 Z M65.4375 104.9375 C64.44875543 108.10148262 64.15442681 110.01107864 65.125 113.1875 C66.7949425 115.41409001 67.752744 116.1393293 70.4375 116.9375 C75.33951022 116.77030373 75.33951022 116.77030373 79.375 114.25 C80.7988395 111.1510552 80.98903827 109.31567188 80.4375 105.9375 C78.14603575 102.92586127 76.67746182 101.21649141 72.9375 100.375 C69.50127684 101.14815021 67.85572437 102.38492983 65.4375 104.9375 Z M-172.5625 151.9375 C-173.31273437 152.62328125 -174.06296875 153.3090625 -174.8359375 154.015625 C-196.45667239 174.49842647 -208.09212253 204.93905552 -208.9140625 234.40332031 C-209.21684866 267.14207343 -196.92564439 296.26341266 -174.5625 319.9375 C-173.87671875 320.68773437 -173.1909375 321.43796875 -172.484375 322.2109375 C-152.54280811 343.26036922 -126.61891031 351.50754048 -98.5625 355.9375 C-98.5625 277.3975 -98.5625 198.8575 -98.5625 117.9375 C-126.18382896 117.9375 -153.21732512 133.6635563 -172.5625 151.9375 Z M133.4375 232.9375 C132.27539781 235.33101495 132.27539781 235.33101495 132.4375 237.9375 C134.05905629 241.42384601 135.20203292 242.78052194 138.4375 244.9375 C143.33507389 244.76416872 143.33507389 244.76416872 147.375 242.25 C148.7988395 239.1510552 148.98903827 237.31567188 148.4375 233.9375 C146.14603575 230.92586127 144.67746182 229.21649141 140.9375 228.375 C137.53767193 229.13996132 135.85835748 230.44939648 133.4375 232.9375 Z M65.4375 360.9375 C64.44875543 364.10148262 64.15442681 366.01107864 65.125 369.1875 C66.7949425 371.41409001 67.752744 372.1393293 70.4375 372.9375 C75.33951022 372.77030373 75.33951022 372.77030373 79.375 370.25 C80.7988395 367.1510552 80.98903827 365.31567188 80.4375 361.9375 C78.14603575 358.92586127 76.67746182 357.21649141 72.9375 356.375 C69.50127684 357.14815021 67.85572437 358.38492983 65.4375 360.9375 Z M-19.3125 445.4453125 C-20.81943182 447.01449245 -20.81943182 447.01449245 -21.25 449.9375 C-20.32330628 453.98125441 -18.87919279 455.48603142 -15.5625 457.9375 C-12.51941709 458.68765195 -12.51941709 458.68765195 -9.5625 457.9375 C-6.90890738 456.00109458 -5.8015053 454.55891377 -4.625 451.5 C-4.54183889 448.0903946 -5.47592861 446.59967729 -7.5625 443.9375 C-12.28223521 440.84017377 -15.14041833 441.75302022 -19.3125 445.4453125 Z " fill="#FFFFFF" transform="translate(345.5625,19.0625)"/>
<path d="M0 0 C0.9075 -0.04576172 1.815 -0.09152344 2.75 -0.13867188 C8.7013953 -0.2372901 12.23595933 0.81795389 16.95556641 4.45678711 C21.19073796 9.48164041 22.06980844 14.81418036 22.01318359 21.20532227 C22.02106903 22.31893631 22.02106903 22.31893631 22.02911377 23.45504761 C22.04222586 25.88821992 22.0336083 28.32072828 22.0234375 30.75390625 C22.02546056 32.45588811 22.02837393 34.15786912 22.03213501 35.85984802 C22.03654626 39.41796158 22.03016532 42.97584844 22.01611328 46.53393555 C21.99900897 51.08571921 22.00887792 55.63697261 22.02683067 60.18873692 C22.0376899 63.70012888 22.0342126 67.21139586 22.0264473 70.72279167 C22.02445188 72.40085857 22.02688137 74.07893697 22.03388596 75.75699043 C22.04153732 78.1046554 22.02984616 80.45147033 22.01318359 82.79907227 C22.01925629 83.48651016 22.02532898 84.17394806 22.03158569 84.88221741 C21.96154775 90.23078148 20.43920778 94.01164502 17.2578125 98.265625 C11.76990849 103.44074691 5.88321443 103.65482377 -1.375 104.4375 C-20.98022232 106.99952091 -38.57390479 111.75020637 -56.375 120.4375 C-57.39207031 120.93121094 -58.40914062 121.42492187 -59.45703125 121.93359375 C-95.72237685 140.67688364 -121.06453062 174.3306713 -133.48461914 212.66015625 C-145.41254272 251.58620499 -140.25342395 293.71136813 -121.30029297 329.46484375 C-102.06184956 364.42809673 -70.32940602 390.52127251 -32.16796875 402.3828125 C-20.77403854 405.55105262 -9.56008068 407.83946698 2.25683594 408.66674805 C7.86346157 409.11578713 12.21721373 410.21648122 16.48828125 414.15625 C16.96652344 414.7440625 17.44476563 415.331875 17.9375 415.9375 C18.42863281 416.5253125 18.91976563 417.113125 19.42578125 417.71875 C22.04154837 421.46773219 21.78511823 425.34517454 21.80200195 429.71948242 C21.80857315 430.45809509 21.81514435 431.19670776 21.82191467 431.95770264 C21.84162815 434.40279242 21.8533075 436.84782075 21.86328125 439.29296875 C21.86735678 440.12973963 21.8714323 440.96651051 21.87563133 441.82863808 C21.89648636 446.25986102 21.91078906 450.69105306 21.92016602 455.12231445 C21.93121361 459.68750559 21.9655958 464.25220704 22.00533772 468.81722546 C22.03155341 472.33725354 22.03986235 475.85716598 22.04344749 479.3772831 C22.04830271 481.05931203 22.05988625 482.74133617 22.07848549 484.42326927 C22.24841486 500.81213963 22.24841486 500.81213963 17.625 507.4375 C12.02954945 512.76000174 7.24690612 512.61972245 -0.0625 512.625 C-0.93583984 512.63724609 -1.80917969 512.64949219 -2.70898438 512.66210938 C-11.59579993 512.68202009 -19.41481471 511.29524858 -26.375 505.4375 C-32.61527671 497.857557 -33.93733349 489.2318902 -35.25 479.8125 C-35.46154753 478.41245765 -35.67507655 477.01271321 -35.890625 475.61328125 C-36.40825607 472.22447535 -36.89913164 468.83245347 -37.375 465.4375 C-37.93670898 465.26734375 -38.49841797 465.0971875 -39.07714844 464.921875 C-57.34216278 459.34974892 -75.19874894 453.54158113 -91.55371094 443.4987793 C-95.47426502 441.13405102 -95.47426502 441.13405102 -99.89453125 440.30078125 C-103.7229689 442.05523063 -106.83787452 444.57997651 -110.125 447.1875 C-119.6988137 454.57683848 -127.81722769 460.68930325 -140.375 459.4375 C-150.90934251 457.57955945 -158.15284755 448.67473676 -165.375 441.4375 C-166.23609375 440.57640625 -167.0971875 439.7153125 -167.984375 438.828125 C-168.77328125 438.03921875 -169.5621875 437.2503125 -170.375 436.4375 C-171.26058594 435.57511719 -172.14617187 434.71273438 -173.05859375 433.82421875 C-181.8684777 425.18928285 -189.38280572 417.69797997 -190.75 404.9375 C-189.81623974 396.22240426 -186.10264252 390.0043921 -180.875 383.125 C-180.29363281 382.34060547 -179.71226562 381.55621094 -179.11328125 380.74804688 C-177.01184646 377.91808264 -174.91498624 375.0949117 -172.67749023 372.37084961 C-171.0834769 370.41815017 -171.0834769 370.41815017 -171.50390625 367.4921875 C-172.40006294 364.34961111 -173.51498349 362.2778073 -175.3125 359.5625 C-183.79863514 345.48878616 -195.375 323.22808937 -195.375 306.4375 C-196.24189453 306.30698242 -197.10878906 306.17646484 -198.00195312 306.04199219 C-201.25411732 305.54573731 -204.50392305 305.03736954 -207.75292969 304.52099609 C-209.1525754 304.30103336 -210.55296678 304.08575722 -211.95410156 303.87548828 C-223.12748449 302.19390212 -231.57333073 300.49262441 -238.96875 291.3828125 C-243.92086737 284.53238347 -243.53234428 276.04462968 -243.54296875 267.91796875 C-243.54629715 267.01935623 -243.54962555 266.12074371 -243.55305481 265.19490051 C-243.55809602 263.30140694 -243.56046401 261.40790457 -243.56030273 259.5144043 C-243.56248539 256.64421675 -243.58066063 253.7744164 -243.59960938 250.90429688 C-243.6025448 249.0546888 -243.6045286 247.20507892 -243.60546875 245.35546875 C-243.61265427 244.51034225 -243.61983978 243.66521576 -243.62724304 242.79447937 C-243.59137193 233.26280367 -242.56312795 225.06834821 -235.91015625 217.84765625 C-228.38019103 210.60117208 -217.67432407 209.79954513 -207.75 208.25 C-206.65042969 208.07275391 -205.55085938 207.89550781 -204.41796875 207.71289062 C-201.73787886 207.28174573 -199.05697349 206.85673851 -196.375 206.4375 C-196.11396484 205.62297363 -195.85292969 204.80844727 -195.58398438 203.96923828 C-182.92901389 164.6911797 -182.92901389 164.6911797 -172.52734375 148.91796875 C-171.09117652 145.82655793 -171.4479892 144.67143475 -172.375 141.4375 C-173.59249424 139.28271204 -173.59249424 139.28271204 -175.17578125 137.2578125 C-176.02366211 136.11119141 -176.02366211 136.11119141 -176.88867188 134.94140625 C-177.7790918 133.76384766 -177.7790918 133.76384766 -178.6875 132.5625 C-191.1411684 115.93002593 -191.1411684 115.93002593 -190.375 104.4375 C-188.25117312 93.03254967 -179.40039456 85.17455703 -171.375 77.4375 C-168.81946144 74.90267083 -166.29061729 72.34966527 -163.796875 69.75390625 C-155.91625412 61.63133649 -148.00019383 53.72684651 -136.125 53.0625 C-126.3830477 53.41895205 -118.97097613 58.79254136 -111.5625 64.625 C-109.93723229 65.89733782 -108.3059122 67.16199106 -106.66796875 68.41796875 C-105.9618042 68.97379639 -105.25563965 69.52962402 -104.52807617 70.10229492 C-102.0585633 71.63373453 -100.2689676 72.20469817 -97.375 72.4375 C-95.42184756 71.8178723 -95.42184756 71.8178723 -93.65234375 70.62890625 C-92.95931152 70.21535889 -92.2662793 69.80181152 -91.55224609 69.37573242 C-90.81312988 68.92174072 -90.07401367 68.46774902 -89.3125 68 C-74.84066928 59.54891548 -59.37797515 54.20513001 -43.375 49.4375 C-41.37360462 48.77503417 -39.37338455 48.1089936 -37.375 47.4375 C-37.25495605 46.5810791 -37.13491211 45.7246582 -37.01123047 44.84228516 C-36.54793794 41.6149275 -36.06468839 38.39181213 -35.56835938 35.16943359 C-35.35900108 33.78387984 -35.15727781 32.39714709 -34.96386719 31.00927734 C-33.56445221 21.01860856 -31.68192842 12.10533186 -23.8125 5.18359375 C-23.008125 4.75175781 -22.20375 4.31992188 -21.375 3.875 C-20.570625 3.41996094 -19.76625 2.96492187 -18.9375 2.49609375 C-12.9151163 0.00818829 -6.42692671 0.13125414 0 0 Z M-13.375 20.4375 C-15.62291604 24.35502817 -16.06416514 28.80965125 -16.7421875 33.22265625 C-16.99027099 34.73773094 -17.23898808 36.252702 -17.48828125 37.76757812 C-17.87244498 40.13871928 -18.25160172 42.51033079 -18.61962891 44.8840332 C-18.97935741 47.18701034 -19.35924927 49.48594061 -19.7421875 51.78515625 C-19.84651093 52.49253433 -19.95083435 53.19991241 -20.05831909 53.9287262 C-20.80750006 58.31849277 -21.73396312 60.79947317 -25.375 63.4375 C-28.03442383 64.46728516 -28.03442383 64.46728516 -31.08203125 65.2265625 C-32.21495605 65.52304688 -33.34788086 65.81953125 -34.51513672 66.125 C-35.7270166 66.434375 -36.93889648 66.74375 -38.1875 67.0625 C-57.14333784 72.19244656 -75.75008431 79.42963618 -92.0546875 90.58691406 C-95.06678014 92.53975412 -97.15871717 93.42901832 -100.76171875 93.5703125 C-105.66240234 92.03388197 -109.14410622 89.41693503 -113.1875 86.3125 C-114.78109634 85.12739752 -116.37484524 83.94250014 -117.96875 82.7578125 C-119.43760625 81.65118268 -120.90636611 80.5444249 -122.375 79.4375 C-124.30137123 78.00364205 -126.23835311 76.59065092 -128.1875 75.1875 C-128.89519531 74.66671875 -129.60289062 74.1459375 -130.33203125 73.609375 C-132.79689516 72.19549513 -134.53404639 71.67461527 -137.375 71.4375 C-139.78294194 72.68188443 -139.78294194 72.68188443 -142.0078125 74.7109375 C-142.87696289 75.45182617 -143.74611328 76.19271484 -144.64160156 76.95605469 C-149.31198415 81.19594113 -153.80926069 85.58358815 -158.25 90.0625 C-159.17296875 90.97773437 -160.0959375 91.89296875 -161.046875 92.8359375 C-161.93632812 93.72796875 -162.82578125 94.62 -163.7421875 95.5390625 C-164.53737793 96.33650879 -165.33256836 97.13395508 -166.15185547 97.95556641 C-170.8185756 102.81954446 -170.8185756 102.81954446 -172.29345703 109.05786133 C-171.33658306 111.5370348 -170.26579823 113.38252908 -168.6796875 115.51171875 C-168.13151367 116.25703857 -167.58333984 117.0023584 -167.01855469 117.77026367 C-166.43493164 118.54732666 -165.85130859 119.32438965 -165.25 120.125 C-164.06501493 121.73951784 -162.88011841 123.35410068 -161.6953125 124.96875 C-159.80568289 127.51948383 -157.90489259 130.06019966 -155.9921875 132.59375 C-149.88668159 140.87067014 -149.88668159 140.87067014 -150.375 146.4375 C-152.02975034 150.3008634 -154.24060686 153.82353724 -156.375 157.4375 C-165.22547415 173.37792952 -171.92452334 189.19417852 -176.98046875 206.7109375 C-177.2129834 207.49049805 -177.44549805 208.27005859 -177.68505859 209.07324219 C-178.15547306 210.68523571 -178.59473161 212.30656997 -179.00634766 213.93457031 C-179.22726074 214.73217773 -179.44817383 215.52978516 -179.67578125 216.3515625 C-179.85923096 217.06521973 -180.04268066 217.77887695 -180.23168945 218.51416016 C-182.00322223 221.49432997 -184.19736403 222.17841918 -187.375 223.4375 C-190.82250977 224.18945312 -190.82250977 224.18945312 -194.56640625 224.71875 C-195.23413559 224.81837036 -195.90186493 224.91799072 -196.58982849 225.02062988 C-199.41864245 225.44253421 -202.25064453 225.84072897 -205.08276367 226.23974609 C-207.16206477 226.53627749 -209.23913137 226.84589101 -211.31640625 227.15625 C-212.55076416 227.33091797 -213.78512207 227.50558594 -215.05688477 227.68554688 C-218.51346143 228.46887821 -220.63811473 229.18802202 -223.375 231.4375 C-225.71674949 236.21629247 -225.66759991 240.91843995 -225.640625 246.125 C-225.64253845 246.94572998 -225.6444519 247.76645996 -225.64642334 248.61206055 C-225.64777882 250.34000965 -225.64412706 252.06796915 -225.63574219 253.79589844 C-225.62503346 256.42927084 -225.63565901 259.06196112 -225.6484375 261.6953125 C-225.64711579 263.38020983 -225.64455316 265.06510673 -225.640625 266.75 C-225.64467346 267.53141357 -225.64872192 268.31282715 -225.65289307 269.11791992 C-225.60851661 274.33364275 -225.44371514 279.17801711 -221.74414062 283.21875 C-218.4446176 284.91611386 -215.0979536 285.41051592 -211.46875 285.9375 C-210.70703491 286.05931641 -209.94531982 286.18113281 -209.16052246 286.30664062 C-206.73357919 286.69449408 -204.30476515 287.0677636 -201.875 287.4375 C-198.67486405 287.92446343 -195.47759797 288.42632774 -192.28125 288.9375 C-191.54886108 289.04384766 -190.81647217 289.15019531 -190.06188965 289.25976562 C-186.11287378 289.89282987 -183.17604588 290.48443282 -180.375 293.4375 C-179.48120117 295.49609375 -179.48120117 295.49609375 -178.91796875 297.875 C-178.69641113 298.7604248 -178.47485352 299.64584961 -178.24658203 300.55810547 C-178.02083496 301.50830566 -177.79508789 302.45850586 -177.5625 303.4375 C-172.83466042 321.90363578 -166.37974091 339.66900345 -156.01367188 355.76464844 C-149.71152415 365.56099966 -149.71152415 365.56099966 -150.375 371.4375 C-153.99312944 379.21262922 -159.9613766 386.02362445 -165.19799805 392.77929688 C-169.41265601 398.24342146 -169.41265601 398.24342146 -172.375 404.4375 C-171.47561929 408.68852968 -168.98855714 411.26206862 -166.0625 414.375 C-161.06956714 419.7495583 -161.06956714 419.7495583 -158.8125 422.625 C-156.25229557 425.57908203 -153.5360128 428.04098066 -150.55859375 430.5625 C-149.02102021 431.88277782 -147.51559027 433.24095484 -146.03515625 434.625 C-144.87306641 435.7078125 -144.87306641 435.7078125 -143.6875 436.8125 C-142.98238281 437.48023438 -142.27726562 438.14796875 -141.55078125 438.8359375 C-139.02280441 440.69674631 -137.51063885 441.30684838 -134.375 441.4375 C-131.9363351 440.46439119 -131.9363351 440.46439119 -129.5625 438.75 C-128.61375 438.11191406 -127.665 437.47382813 -126.6875 436.81640625 C-122.05179926 433.53278489 -117.52287153 430.09533172 -113.03393555 426.61450195 C-103.73276372 419.47089609 -103.73276372 419.47089609 -98.6171875 419.3984375 C-93.83052392 420.93247667 -89.78914267 423.47541658 -85.5 426.0625 C-67.57442887 436.55261108 -48.14285661 444.69507824 -27.65234375 448.63671875 C-24.61365556 449.70521117 -23.40607061 450.92086511 -21.375 453.4375 C-20.64614101 456.055797 -20.13539332 458.42366233 -19.7421875 461.08984375 C-19.61941437 461.82699112 -19.49664124 462.56413849 -19.37014771 463.32362366 C-18.98148964 465.67189423 -18.61467835 468.02289689 -18.25 470.375 C-17.87457036 472.72276056 -17.49450032 475.06963052 -17.10842896 477.41566467 C-16.86986996 478.87257215 -16.63798012 480.33059235 -16.41378784 481.78977966 C-15.54746506 487.33229498 -15.54746506 487.33229498 -13.375 492.4375 C-7.41557409 495.18028135 -7.41557409 495.18028135 3.625 494.4375 C3.625 472.3275 3.625 450.2175 3.625 427.4375 C-5.285 426.1175 -14.195 424.7975 -23.375 423.4375 C-55.41459715 415.24960295 -81.86805363 401.54148728 -106.375 379.4375 C-107.12394531 378.76203125 -107.87289062 378.0865625 -108.64453125 377.390625 C-114.95101665 371.37955541 -120.19635304 364.41709586 -125.375 357.4375 C-125.80071289 356.86676758 -126.22642578 356.29603516 -126.66503906 355.70800781 C-153.13744884 319.67324204 -162.12166986 273.75993583 -156.39453125 229.88647461 C-150.77963803 194.4244647 -134.14555767 163.79219223 -110.375 137.4375 C-109.69953125 136.68855469 -109.0240625 135.93960938 -108.328125 135.16796875 C-102.31705541 128.86148335 -95.35459586 123.61614696 -88.375 118.4375 C-87.80426758 118.01178711 -87.23353516 117.58607422 -86.64550781 117.14746094 C-59.79348005 97.42101435 -28.89708839 89.50276105 3.625 85.4375 C3.625 63.3275 3.625 41.2175 3.625 18.4375 C-7.41557409 17.69471865 -7.41557409 17.69471865 -13.375 20.4375 Z " fill="#FFFFFF" transform="translate(243.375,-0.4375)"/>
</svg>
